<svg width="100" height="100" viewBox="0 0 100 100" fill="none" xmlns="http://www.w3.org/2000/svg">
<g clip-path="url(#clip0_2828_2126)">
<path d="M100 0H0V100H100V0Z" fill="#020617"/>
<path d="M77.2097 17.8347C78.4301 16.6143 78.4301 14.6357 77.2097 13.4153C75.9893 12.1949 74.0107 12.1949 72.7903 13.4153L13.4153 72.7903C12.1949 74.0107 12.1949 75.9893 13.4153 77.2097C14.6357 78.4301 16.6143 78.4301 17.8347 77.2097L77.2097 17.8347Z" fill="white"/>
<path d="M83.4597 52.2097C84.6801 50.9893 84.6801 49.0107 83.4597 47.7903C82.2393 46.5699 80.2607 46.5699 79.0403 47.7903L47.7903 79.0403C46.5699 80.2607 46.5699 82.2393 47.7903 83.4597C49.0107 84.6801 50.9893 84.6801 52.2097 83.4597L83.4597 52.2097Z" fill="white"/>
</g>
<defs>
<clipPath id="clip0_2828_2126">
<rect width="100" height="100" fill="white"/>
</clipPath>
</defs>
</svg>
