<svg width="58" height="58" viewBox="0 0 58 58" fill="none" xmlns="http://www.w3.org/2000/svg">
<path d="M34.8948 1.07199C35.0283 1.08651 35.1631 1.10367 35.2952 1.12083C35.1631 1.10235 35.0296 1.08651 34.8948 1.07199Z" fill="black"/>
<path d="M43.2895 3.77703L42.556 3.3823C42.5573 3.3823 42.5586 3.38362 42.5586 3.38362C42.5375 3.37306 42.5163 3.36118 42.4965 3.35062C42.4199 3.31101 42.3419 3.27405 42.2653 3.23576C42.3155 3.26084 42.3683 3.28461 42.4186 3.30969C42.3009 3.24764 42.1873 3.18823 42.0683 3.12751L41.5542 2.89383C41.6005 2.91495 41.6441 2.93872 41.6904 2.95852C41.0613 2.66808 40.4177 2.40404 39.7582 2.17301C36.9393 1.51028 34.0305 1.23173 29.0243 1.14856C38.3005 1.60534 41.4868 2.92816 42.5547 3.3823C42.8005 3.50904 43.0476 3.63973 43.2895 3.77703Z" fill="black"/>
<path d="M35.9045 0.844908C35.5424 0.756456 35.1776 0.671969 34.8657 0.602L34.6714 0.562396C33.6023 0.394733 31.4798 0.727417 29.023 1.14723C29.2345 1.11819 29.4459 1.0931 29.6574 1.07066C33.7305 0.607279 34.9067 0.682526 35.9045 0.844908Z" fill="black"/>
<path d="M32.9005 0.266671C32.5781 0.225745 32.1803 0.17954 31.8697 0.143895C31.8644 0.143895 31.8604 0.142574 31.8552 0.142574C31.7957 0.157096 31.7878 0.159742 29.0217 1.14724C32.2358 0.295721 32.5529 0.286476 32.9811 0.277234C32.956 0.273274 32.927 0.270631 32.9005 0.266671Z" fill="black"/>
<path d="M19.1825 56.2991C19.2526 56.3241 19.3239 56.3492 19.3979 56.3743C19.9133 56.5472 20.5503 56.7466 21.0446 56.8984C21.5521 57.0449 22.238 57.2047 22.7521 57.3275C16.057 55.6931 10.3464 52.0296 5.77638 46.4373L7.06228 48.0215C7.22219 48.2011 7.36624 48.3621 7.4984 48.5074C7.97417 49.0011 8.53849 49.5754 9.11073 50.1246C9.46756 50.448 9.90765 50.8388 10.5169 51.3787C10.8328 51.6309 11.2002 51.9121 11.5781 52.192C14.8239 54.5828 17.0429 55.4634 19.1825 56.2991Z" fill="black"/>
<path d="M30.4781 0.080529C30.4358 0.066007 30.3789 0.0462037 30.3367 0.0303616C30.334 0.0303616 30.33 0.0303603 30.3274 0.0290401C30.0274 0.0145181 29.8424 0.0105556 29.8226 0.0105556C29.6534 0.00791528 29.438 0.00132018 29.2582 0C29.5979 0.0132018 29.6085 0.0237648 29.7618 0.224432C29.664 0.57428 29.664 0.574278 29.0217 1.14724C30.3856 0.389453 30.4292 0.246872 30.4781 0.080529Z" fill="black"/>
<path d="M1.95305 39.6186C7.27506 52.1695 20.6006 56.9737 25.3054 57.7671C25.3279 57.7697 25.3503 57.7724 25.3728 57.775C25.6226 57.8054 25.9331 57.8384 26.1723 57.8635L26.6666 57.907C26.6759 57.9083 26.6838 57.9084 26.6917 57.9097C23.9138 57.6522 4.81559 52.0243 0.517808 34.7049C0.564064 34.961 0.611641 35.2118 0.657896 35.4455C0.977719 36.6535 1.4667 38.2324 1.88036 39.4364C1.90679 39.4998 1.92926 39.5565 1.95305 39.6186Z" fill="black"/>
<path d="M28.2102 0.224432C28.871 0.472626 28.9027 0.616522 29.023 1.14723C29.5054 0.0673274 28.5049 0.0475226 27.6221 0.0290401C27.3129 0.0448822 26.9005 0.0739262 26.5926 0.0950491L26.2992 0.120133C26.7499 0.092409 27.6908 0.0290456 28.2102 0.224432Z" fill="black"/>
<path d="M28.3688 57.9928C28.4798 57.9955 28.5895 57.9981 28.7005 57.9995H28.7468C28.764 57.9995 28.7838 57.9995 28.801 57.9995C28.9265 58.0008 29.0494 57.9995 29.1737 57.9981C29.2807 57.9968 29.3864 57.9955 29.4803 57.9955C29.4856 57.9955 29.4908 57.9955 29.4975 57.9955C27.2957 57.9572 -4.24121 46.0175 0.854812 21.7618C0.854812 21.7645 0.85349 21.7658 0.85349 21.7684C0.679041 22.4523 0.508557 23.3738 0.361862 24.0616C0.220453 24.9435 0.104153 26.1303 0.00767801 27.0188C-0.511704 48.778 25.4825 57.7116 28.3688 57.9928Z" fill="black"/>
<path d="M23.6124 0.506943C23.553 0.518824 23.4922 0.530708 23.4314 0.54259C26.9798 -0.0646925 28.4613 0.810589 29.023 1.14723C28.0173 0.0422441 26.2688 0.0633624 23.6124 0.506943Z" fill="black"/>
<path d="M3.68696 14.7504C-9.12445 39.4219 26.7605 56.8416 31.053 57.9242C31.082 57.9216 31.1124 57.9202 31.1428 57.9176L31.3305 57.9031C31.3596 57.9004 31.3913 57.8978 31.4217 57.8952C31.6411 57.8767 31.9027 57.8489 32.1234 57.8265C32.1512 57.8239 32.1803 57.8199 32.208 57.8173C27.1252 53.9571 20.9402 51.854 16.0398 47.7034C13.6411 45.6716 8.02571 40.915 4.74291 34.5517C-1.82536 21.8226 4.02132 13.7035 6.88915 10.2116C6.78871 10.3278 6.68959 10.4426 6.59312 10.5575L6.1081 11.1344C5.34951 12.1773 4.39401 13.6058 3.71075 14.7068C3.70282 14.7226 3.69621 14.7358 3.68696 14.7504Z" fill="black"/>
<path d="M22.3014 0.782866C22.3186 0.778906 22.3358 0.77362 22.3543 0.76966C22.3094 0.778901 22.2591 0.790788 22.2169 0.800029C21.8984 0.871319 21.4768 0.984855 21.1622 1.07331C20.512 1.25417 19.6517 1.51821 19.0213 1.75716C18.6354 1.9037 18.12 2.09644 17.7393 2.25883C17.2834 2.45289 16.6847 2.73145 16.2367 2.94136C15.7781 3.15655 15.1781 3.47075 14.7407 3.72687C14.2266 4.02787 13.5922 4.41864 13.0266 4.78169C7.22616 8.76731 2.64688 15.1623 3.27991 22.3757C4.77594 39.3862 24.0605 51.054 31.3212 55.4462C33.8349 56.9671 33.8349 56.9671 33.9816 57.5611C33.9974 57.5585 34.0133 57.5559 34.0292 57.5519C34.4269 57.478 34.9291 57.3724 35.3243 57.2905C35.3388 57.2879 35.3521 57.2839 35.3666 57.2813C35.5093 57.2324 35.6111 57.0304 35.7076 56.9156C35.3785 56.2819 34.7309 55.8238 31.2393 53.5399C22.2565 47.6624 13.2182 40.9018 7.94378 31.3226C-3.96235 9.69804 19.131 -1.48916 29.023 1.14592C27.1041 0.407935 24.7701 0.324764 22.3014 0.782866Z" fill="black"/>
<path d="M32.3428 51.1213C37.8089 54.9789 39.1106 55.899 37.382 56.7505C37.4005 56.7453 37.4203 56.74 37.4375 56.7347C37.7018 56.6515 38.0058 56.5525 38.3018 56.4522C38.504 56.3835 38.7036 56.3123 38.9045 56.2396C41.352 55.103 39.219 53.5333 34.1243 49.7879C28.4864 45.6426 21.4715 40.4833 15.5178 32.9358C-2.05663 10.6565 16.7006 -0.36833 29.0217 1.14724C15.0208 -1.88258 -15.1046 17.631 32.3428 51.1213Z" fill="black"/>
<path d="M35.5569 46.7845C41.9296 51.6665 44.319 53.4976 41.1551 55.3168C41.1802 55.305 41.204 55.2944 41.2291 55.2825C41.7591 55.029 42.4199 54.6832 42.9274 54.4231C45.3961 52.9814 44.4089 51.3101 42.9763 49.718C36.9816 43.059 29.0177 38.6456 22.8776 32.1517C3.11339 11.2492 16.3728 0.856795 29.023 1.14723C16.131 -0.0277254 -6.88965 14.2698 35.5569 46.7845Z" fill="black"/>
<path d="M40.4824 42.7474C46.5564 47.6083 48.7185 50.2209 45.4793 52.8468C46.0344 52.4573 46.7362 51.9081 47.2886 51.4857C47.5674 51.256 47.8569 51.0091 48.1357 50.7649C50.656 48.4598 49.2419 47.2149 32.29 32.3008C7.71646 10.6816 18.7913 3.04697 26.7988 1.45088C19.534 2.80274 -0.716545 9.77197 40.4824 42.7474Z" fill="black"/>
<path d="M28.6992 1.17363C28.1005 1.22776 27.4609 1.31886 26.7988 1.45088C27.6512 1.29245 28.3252 1.2106 28.6992 1.17363Z" fill="black"/>
<path d="M29.023 1.14723C29.0032 1.14723 28.8882 1.15515 28.6992 1.17363C28.8076 1.16439 28.916 1.15516 29.023 1.14723Z" fill="black"/>
<path d="M39.3512 33.2289C49.4243 41.3269 53.2066 45.0313 49.9278 49.0552C49.9502 49.0315 49.9701 49.0117 49.9925 48.9879C50.508 48.4347 51.1278 47.7034 51.6115 47.1423C51.622 47.1304 51.6313 47.1172 51.6419 47.104C54.5084 43.3481 51.7701 39.3968 39.9419 30.2176C9.08827 6.27085 25.4336 1.7994 29.023 1.14723C26.4063 1.4786 4.46934 5.18567 39.3512 33.2289Z" fill="black"/>
<path d="M41.4353 26.7508C52.8339 35.2554 55.9714 39.6054 53.8383 43.9541C53.9242 43.8115 54.0088 43.6689 54.0921 43.5276L54.1727 43.3903C54.2309 43.29 54.2837 43.1963 54.3366 43.1025L54.9881 41.8497C55.0674 41.6886 55.1441 41.5289 55.2194 41.3744C57.7661 35.5445 48.1225 28.533 41.7221 23.8807C20.8728 8.72902 23.3098 3.15523 29.0243 1.14724C24.1424 2.41989 15.5825 7.46034 41.4353 26.7508Z" fill="black"/>
<path d="M41.9917 20.1473C51.9432 27.1495 57.9062 31.8348 56.6652 37.6806C56.726 37.4812 56.7841 37.2845 56.8423 37.0891C57.0405 36.3604 57.2388 35.5406 57.4013 34.8871C58.2537 29.0624 52.2366 24.6227 42.3459 17.8633C35.812 13.3972 23.6508 5.08533 29.023 1.14723C20.5953 5.09061 36.6988 16.423 41.9917 20.1473Z" fill="black"/>
<path d="M42.7199 14.9959C53.9348 22.2635 57.7463 25.5613 57.9458 30.5648C57.9524 30.4658 57.959 30.3668 57.9643 30.2691L58 29.0466L57.9722 27.8611C57.967 27.7251 57.9604 27.5917 57.9538 27.4571C57.5229 22.2054 50.5146 17.8765 41.6547 12.4057C35.4234 8.55872 28.3596 4.19817 29.0217 1.14724C26.1049 4.22986 36.104 10.7093 42.7199 14.9959Z" fill="black"/>
<path d="M41.9957 10.3568C52.3251 16.2158 56.2132 19.0594 57.4502 23.3526C57.2943 22.6094 57.0432 21.6694 56.8317 20.8734C56.7841 20.7083 56.7366 20.546 56.6863 20.3809C55.0066 16.0177 49.3793 12.8863 39.6102 7.75077C32.7023 4.11896 30.4265 2.69977 29.0217 1.14724C29.8278 3.45491 34.9318 6.35007 41.9957 10.3568Z" fill="black"/>
<path d="M55.2115 16.5986C55.1705 16.5115 55.1282 16.4244 55.0846 16.3359L54.4965 15.1755L54.1013 14.4824C54.0273 14.357 53.9546 14.2302 53.878 14.1035C52.5458 12.0374 50.1379 10.4994 46.6926 8.69602C41.0005 5.71902 34.8895 3.71631 29.023 1.14592C30.8534 2.30899 34.2168 3.85228 38.4736 5.80615C49.7679 10.9905 53.2529 13.2322 55.2115 16.5986Z" fill="black"/>
<path d="M51.6894 10.9548C51.6353 10.8888 51.5864 10.8268 51.5295 10.7581C51.4939 10.7159 51.4608 10.675 51.4238 10.6314C51.3802 10.5799 51.3353 10.5258 51.2903 10.4743C50.8635 9.97791 50.3811 9.44324 49.9965 9.01023C47.471 6.42663 40.415 3.781 29.0217 1.14856C46.304 6.3197 49.6476 8.74751 51.6894 10.9548Z" fill="black"/>
<path d="M46.9503 6.2484C46.5274 5.92496 46.0661 5.58567 45.671 5.29127C45.589 5.23583 45.5084 5.17906 45.4238 5.12362C42.6829 3.3955 37.1692 2.05684 29.023 1.14723C34.0886 1.89842 43.1534 3.59485 47.3097 6.54017C47.1868 6.43983 47.0679 6.34346 46.9503 6.2484Z" fill="black"/>
<path d="M35.4525 1.14195C36.1292 1.23437 36.7965 1.35318 37.4494 1.505C38.6111 1.69643 38.7551 1.74264 39.6379 2.02912C39.6128 2.01856 39.5851 2.00668 39.56 1.99744C39.1159 1.82449 38.5159 1.61722 38.0653 1.45748C38.0613 1.45616 38.0573 1.45484 38.0534 1.45352C36.9908 1.1116 35.7419 1.06406 34.2961 1.00861C34.3622 1.0139 34.4283 1.02314 34.4944 1.02842C33.7543 0.958451 33.0036 0.921489 32.2424 0.924129C31.0701 0.980897 30.9155 0.994095 29.023 1.14592C32.0309 1.02314 33.3922 1.04426 35.4525 1.14195ZM34.8948 1.07199C35.0283 1.08651 35.1631 1.10367 35.2952 1.12083C35.1631 1.10235 35.0296 1.08651 34.8948 1.07199Z" fill="black"/>
</svg>
