<svg width="275" height="277" viewBox="0 0 275 277" fill="none" xmlns="http://www.w3.org/2000/svg">
<path d="M224.006 245.108H221.775C221.522 245.108 221.291 244.968 221.171 244.745C221.05 244.524 221.063 244.253 221.202 244.043L231.297 228.781L248.833 211.668C249.093 211.415 249.504 211.41 249.77 211.649C250.039 211.891 250.074 212.3 249.852 212.584L224.547 244.845C224.417 245.011 224.218 245.108 224.006 245.108ZM223.05 243.734H223.67L242.413 219.84L232.347 229.651L223.05 243.734Z" fill="black"/>
<path d="M145.271 275.815L127.908 273.614L104.099 271.087C103.723 271.047 103.451 270.71 103.489 270.334C103.53 269.959 103.865 269.688 104.242 269.722L124.098 271.747C124.104 271.748 124.111 271.748 124.114 271.75L127.981 272.24L147.783 274.343C148.141 274.381 148.407 274.688 148.397 275.047C148.384 275.406 148.1 275.696 147.739 275.71L145.271 275.815Z" fill="black"/>
<path d="M249.312 212.847C249.201 212.847 249.087 212.82 248.983 212.763C248.66 212.588 248.533 212.19 248.695 211.861L260.938 186.57C260.957 186.529 260.982 186.49 261.007 186.453L268.984 175.974C269.19 175.707 269.551 175.62 269.852 175.783C270.149 175.94 270.288 176.288 270.184 176.607L268.19 182.608L249.897 212.52C249.767 212.73 249.543 212.847 249.312 212.847ZM262.143 187.23L255.995 199.933L266.953 182.033L267.602 180.058L262.143 187.23Z" fill="black"/>
<path d="M145.242 275.816C144.885 275.816 144.587 275.542 144.559 275.183C144.53 274.816 144.796 274.49 145.163 274.448L149.163 273.982L189.559 264.247C189.917 264.159 190.284 264.376 190.382 264.735C190.48 265.092 190.274 265.464 189.92 265.572L163.213 273.718L149.321 275.343L147.872 275.693L145.271 275.815C145.261 275.816 145.252 275.816 145.242 275.816ZM167.754 270.908L160.422 272.672L162.934 272.38L167.754 270.908Z" fill="black"/>
<path d="M189.721 265.602C189.483 265.602 189.252 265.477 189.126 265.257C188.939 264.931 189.047 264.518 189.369 264.326L212.659 250.403L221.364 243.872C221.481 243.783 221.627 243.734 221.776 243.734H224.006C224.317 243.734 224.586 243.94 224.668 244.239C224.75 244.537 224.624 244.851 224.358 245.01L213.425 251.546L207.701 255.841C207.675 255.86 207.647 255.879 207.618 255.895L190.05 265.518C189.945 265.575 189.831 265.602 189.721 265.602Z" fill="black"/>
<path d="M171.734 7.45014C171.712 7.45014 171.687 7.44855 171.661 7.44541L128.113 2.82545C127.762 2.78906 127.493 2.48845 127.499 2.13403C127.506 1.77961 127.778 1.48691 128.132 1.45843L137.638 0.722717L162.437 3.10547C162.485 3.1102 162.532 3.1197 162.579 3.13396L171.943 6.10846C172.278 6.21603 172.478 6.55938 172.405 6.90431C172.338 7.22549 172.057 7.45014 171.734 7.45014ZM135.657 2.24634L165.067 5.36639L162.231 4.46455L137.625 2.09129L135.657 2.24634Z" fill="black"/>
<path d="M274.313 115.19C274.015 115.19 273.74 114.996 273.655 114.695L268.873 98.2672L260.912 76.7607C260.785 76.4205 260.944 76.0424 261.276 75.8952C261.599 75.7513 261.997 75.881 262.162 76.2037L267.551 86.5005L274.977 114.326C275.072 114.69 274.86 115.064 274.496 115.165C274.436 115.182 274.373 115.19 274.313 115.19ZM265.883 86.2395L266.579 88.1239L266.279 86.9958L265.883 86.2395Z" fill="black"/>
<path d="M189.721 265.602C189.483 265.602 189.252 265.478 189.126 265.258C188.939 264.934 189.047 264.518 189.369 264.326L223.655 243.832L234.234 236.51C234.528 236.306 234.946 236.368 235.167 236.659C235.392 236.95 235.344 237.364 235.066 237.6L225.421 245.701L190.056 265.515C189.949 265.573 189.835 265.602 189.721 265.602Z" fill="black"/>
<path d="M231.87 39.9671C231.693 39.9671 231.515 39.8975 231.382 39.7645L223.092 31.4328L220.908 29.713L217.155 25.4648C216.912 25.1863 216.931 24.7623 217.203 24.5092C217.475 24.2544 217.893 24.2671 218.159 24.5266L224.06 30.4582L232.06 36.7442C232.202 36.8565 232.297 37.0226 232.316 37.203L232.55 39.1997C232.585 39.4908 232.433 39.7709 232.167 39.899C232.072 39.9449 231.971 39.9671 231.87 39.9671Z" fill="black"/>
<path d="M224.977 245.862C224.791 245.862 224.607 245.788 224.471 245.641C224.224 245.37 224.231 244.954 224.49 244.693L245.891 223.074L250.527 217.739C250.767 217.465 251.182 217.423 251.466 217.649C251.754 217.872 251.818 218.283 251.609 218.582L250.077 220.783C250.055 220.815 250.03 220.847 250.001 220.873L246.872 224.035L235.141 237.526L225.421 245.701C225.291 245.809 225.133 245.862 224.977 245.862Z" fill="black"/>
<path d="M249.312 64.3373C249.096 64.3373 248.888 64.2377 248.755 64.051L231.313 39.6807C231.243 39.5857 231.202 39.475 231.189 39.3611L230.955 37.3644C230.917 37.0511 231.098 36.7552 231.392 36.6429C231.683 36.5289 232.018 36.6318 232.196 36.8881L239.961 47.9254L249.887 63.2772C250.09 63.5905 250.005 64.0082 249.698 64.2186C249.581 64.2977 249.444 64.3373 249.312 64.3373Z" fill="black"/>
<path d="M261.554 77.2085C261.374 77.2085 261.19 77.1357 261.058 76.9949L248.815 64.1238L238.825 48.6944C238.629 48.3906 238.701 47.9888 238.989 47.772C239.268 47.56 239.679 47.5995 239.92 47.8701L252.039 61.7743L262.118 76.1278C262.323 76.4221 262.266 76.8255 261.988 77.0534C261.861 77.1562 261.709 77.2085 261.554 77.2085ZM245.172 55.9851L249.887 63.2774L255.713 69.3925L250.957 62.6192L245.172 55.9851Z" fill="black"/>
<path d="M104.172 271.092C104.102 271.092 104.033 271.081 103.96 271.059L75.7846 261.982L67.6681 257.877C67.3675 257.724 67.2219 257.374 67.3263 257.053C67.4276 256.734 67.744 256.522 68.0857 256.588L77.3731 258.069C77.4301 258.077 77.4871 258.093 77.5377 258.116L104.444 269.775C104.78 269.921 104.944 270.304 104.814 270.647C104.71 270.921 104.451 271.092 104.172 271.092ZM72.1963 258.632L76.3068 260.716L90.9925 265.442L77.0725 259.411L72.1963 258.632Z" fill="black"/>
<path d="M249.514 221.078C249.397 221.078 249.277 221.048 249.169 220.984C248.859 220.805 248.742 220.418 248.894 220.095L264.007 188.398C264.159 188.081 264.529 187.933 264.858 188.046C265.191 188.165 265.377 188.516 265.295 188.858L263.159 197.536C263.143 197.593 263.121 197.65 263.093 197.702L251.647 218.521L251.609 218.582L250.078 220.783C249.945 220.973 249.733 221.078 249.514 221.078ZM262.355 195.055L258.257 203.645L261.846 197.12L262.355 195.055Z" fill="black"/>
<path d="M138.208 276.454C137.857 276.454 137.559 276.188 137.524 275.835C137.486 275.463 137.755 275.131 138.126 275.085L151.099 273.511L189.559 264.247C189.917 264.156 190.3 264.383 190.388 264.752C190.477 265.119 190.252 265.491 189.885 265.581L153.485 274.599C153.46 274.606 153.432 274.612 153.403 274.615L151.277 274.873L147.872 275.693L138.262 276.452C138.243 276.452 138.224 276.454 138.208 276.454Z" fill="black"/>
<path d="M267.538 105.012C267.269 105.012 267.022 104.854 266.911 104.605L248.685 63.9307C248.549 63.627 248.65 63.2662 248.928 63.0811C249.207 62.8928 249.577 62.9355 249.808 63.1776L262.051 76.0487C262.114 76.1167 262.165 76.1958 262.196 76.2828L270.174 97.8369C270.228 97.9808 270.231 98.1391 270.186 98.2846L268.193 104.534C268.104 104.805 267.861 104.995 267.576 105.01C267.563 105.012 267.551 105.012 267.538 105.012ZM251.577 67.0286L267.43 102.406L268.807 98.0916L260.959 76.8919L251.577 67.0286Z" fill="black"/>
<path d="M271.623 148.925C271.598 148.925 271.57 148.924 271.544 148.921C271.177 148.878 270.908 148.552 270.94 148.185L272.873 123.908L272.541 115.106C272.531 114.844 272.674 114.598 272.905 114.475L273.99 113.898C274.209 113.777 274.478 113.792 274.69 113.929C274.898 114.067 275.019 114.307 274.997 114.557L274.247 123.989L274.601 133.545L272.3 148.345C272.25 148.682 271.959 148.925 271.623 148.925Z" fill="black"/>
<path d="M274.313 160.502C274 160.502 273.718 160.286 273.646 159.971L270.956 148.394C270.934 148.308 270.931 148.22 270.946 148.133L273.237 133.464C273.291 133.107 273.576 132.869 273.984 132.887C274.348 132.925 274.617 133.238 274.601 133.604L273.915 148.032L274.997 159.752C275.028 160.111 274.778 160.436 274.424 160.493C274.386 160.499 274.348 160.502 274.313 160.502ZM272.323 148.213L272.712 149.892L272.544 148.062L272.63 146.244L272.323 148.213Z" fill="black"/>
<path d="M267.538 183.078C267.487 183.078 267.44 183.074 267.389 183.061C267.044 182.985 266.813 182.661 266.858 182.309L270.943 148.157C270.981 147.826 271.253 147.571 271.585 147.554C271.936 147.524 272.218 147.758 272.291 148.084L274.98 159.661C275.009 159.774 275.006 159.893 274.971 160.005L270.19 176.58L268.19 182.608C268.095 182.893 267.829 183.078 267.538 183.078ZM271.841 152.205L269.038 175.623L273.604 159.797L271.841 152.205Z" fill="black"/>
<path d="M262.491 198.058C262.428 198.058 262.364 198.049 262.298 198.032C261.947 197.929 261.738 197.565 261.823 197.207L263.956 188.553L270.946 148.122C271.009 147.756 271.364 147.52 271.721 147.56C272.092 147.614 272.348 147.951 272.304 148.321L268.218 182.474L263.143 197.592C263.045 197.876 262.779 198.058 262.491 198.058ZM267.855 174.057L265.991 184.833L266.886 182.172L267.855 174.057Z" fill="black"/>
<path d="M271.624 148.925C271.269 148.925 270.972 148.655 270.94 148.302L266.855 104.389C266.845 104.297 266.855 104.205 266.883 104.117L268.877 97.8669C268.969 97.5821 269.234 97.3891 269.532 97.3891H269.541C269.842 97.3938 270.108 97.5932 270.19 97.8843L274.971 114.312C274.997 114.391 275.003 114.475 274.997 114.557L272.307 148.293C272.279 148.649 271.981 148.922 271.624 148.925ZM268.235 104.401L271.57 140.261L273.62 114.575L269.5 100.428L268.235 104.401Z" fill="black"/>
<path d="M26.5883 65.6949C26.544 65.6949 26.4997 65.6901 26.4585 65.6822C26.2054 65.6331 25.9997 65.4465 25.9301 65.1981L24.1929 59.1716C24.1264 58.9485 24.1802 58.7064 24.3321 58.5308L40.7646 39.6427L51.5108 32.1922C51.7861 31.9992 52.1689 32.0403 52.3999 32.2872C52.6309 32.534 52.6499 32.9137 52.4411 33.1811L27.1294 65.4322C26.9965 65.6 26.7971 65.6949 26.5883 65.6949ZM25.6137 59.1494L26.8762 63.5289L48.5616 35.8977L41.6728 40.6585L25.6137 59.1494Z" fill="black"/>
<path d="M8.35492 95.4636C8.25684 95.4636 8.15871 95.443 8.0638 95.3987C7.74735 95.25 7.59231 94.8893 7.70306 94.557L12.7565 79.5769L24.2495 58.651C24.3824 58.4073 24.6514 58.2713 24.9267 58.2998C25.202 58.3298 25.433 58.5245 25.5089 58.7918L27.2461 64.8183C27.2999 65.0035 27.2746 65.2028 27.1734 65.3674L8.94033 95.1361C8.81058 95.3449 8.58589 95.4636 8.35492 95.4636ZM24.6514 60.7696L14.0096 80.1276L10.9434 89.2346L25.8443 64.907L24.6514 60.7696Z" fill="black"/>
<path d="M113.519 274.063C113.45 274.063 113.38 274.052 113.311 274.03L103.963 271.059L76.9932 259.376C76.6451 259.225 76.4869 258.825 76.6325 258.477C76.7812 258.129 77.1894 257.971 77.528 258.112L93.3719 264.706L113.769 272.737C114.114 272.873 114.291 273.258 114.165 273.606C114.067 273.888 113.801 274.063 113.519 274.063Z" fill="black"/>
<path d="M8.95952 191.037C8.65256 191.037 8.37727 190.829 8.295 190.527L0.92521 162.842C0.842939 162.534 0.985325 162.211 1.2638 162.061L2.34601 161.48C2.51687 161.387 2.71306 161.371 2.89977 161.437C3.08013 161.501 3.22887 161.638 3.30164 161.815L9.98477 177.457C10.0259 177.549 10.0449 177.647 10.0417 177.748L9.64618 190.372C9.63351 190.712 9.3772 190.992 9.03862 191.032C9.01014 191.035 8.98482 191.037 8.95952 191.037ZM2.51055 163.451L8.41841 185.654L8.66523 177.856L2.51055 163.451Z" fill="black"/>
<path d="M24.3795 215.627C24.1612 215.627 23.9491 215.522 23.8162 215.334L13.7884 201.044C13.7726 201.02 13.7567 200.995 13.7441 200.968L8.35201 190.668C8.18747 190.353 8.28872 189.965 8.58618 189.774C8.89313 189.584 9.27917 189.648 9.50067 189.928L27.7527 213.238C27.8824 213.402 27.9299 213.619 27.8793 213.825C27.8287 214.029 27.6862 214.2 27.4932 214.285L24.6611 215.565C24.5725 215.606 24.4744 215.627 24.3795 215.627ZM14.9402 200.292L24.6136 214.081L26.1325 213.394L13.0574 196.696L14.9402 200.292Z" fill="black"/>
<path d="M138.29 276.449L113.453 274.06C113.111 274.027 112.846 273.745 112.833 273.402C112.82 273.06 113.064 272.759 113.403 272.701L120.393 271.483L153.359 273.248C153.713 273.267 153.995 273.555 154.008 273.911C154.02 274.266 153.758 274.573 153.403 274.615L138.29 276.449ZM118.586 273.177L138.274 275.084L145.508 274.198L120.472 272.843L118.586 273.177Z" fill="black"/>
<path d="M92.6692 15.0936C92.5965 15.0936 92.5237 15.081 92.4541 15.0588L85.9671 12.9007C85.6823 12.8058 85.4925 12.5384 85.4956 12.2394C85.4988 11.9419 85.695 11.6793 85.983 11.5923L112.696 3.45353C112.969 3.3665 113.26 3.46303 113.431 3.68136C113.608 3.90128 113.63 4.20664 113.491 4.45028L110.605 9.50853C110.519 9.66199 110.377 9.77433 110.209 9.82497L92.8686 15.0636C92.8021 15.0841 92.7357 15.0936 92.6692 15.0936ZM88.4448 12.2774L92.6787 13.6871L109.548 8.5909L111.443 5.26992L88.4448 12.2774Z" fill="black"/>
<path d="M189.721 265.602C189.499 265.602 189.284 265.496 189.154 265.301C188.952 265.007 189.012 264.608 189.287 264.383L213.26 244.805L228.307 237.004C228.573 236.871 228.895 236.915 229.101 237.121C229.313 237.327 229.37 237.645 229.24 237.91L225.595 245.473C225.535 245.601 225.437 245.706 225.313 245.775L190.056 265.515C189.952 265.573 189.835 265.602 189.721 265.602ZM227.111 239.168L214.01 245.946L196.217 260.491L224.453 244.682L227.111 239.168Z" fill="black"/>
<path d="M249.514 221.078C249.463 221.078 249.412 221.071 249.362 221.06L242.808 219.586C242.59 219.536 242.41 219.385 242.324 219.176C242.239 218.969 242.261 218.733 242.384 218.544L255.921 197.535L264.111 188.239C264.339 187.983 264.718 187.936 265.006 188.121C265.291 188.309 265.392 188.679 265.247 188.989L250.134 220.687C250.017 220.929 249.773 221.078 249.514 221.078ZM244.068 218.462L249.131 219.601L261.896 192.826L257.013 198.361L244.068 218.462Z" fill="black"/>
<path d="M224.978 245.862C224.839 245.862 224.703 245.821 224.582 245.736C224.307 245.543 224.215 245.18 224.361 244.878L228.006 237.315L242.417 218.499C242.578 218.287 242.85 218.187 243.113 218.247L249.666 219.722C249.91 219.775 250.103 219.959 250.173 220.198C250.242 220.438 250.179 220.696 250.002 220.873L225.465 245.658C225.332 245.793 225.155 245.862 224.978 245.862ZM243.239 219.682L229.168 238.031L227.364 241.79L248.154 220.788L243.239 219.682Z" fill="black"/>
<path d="M27.2114 214.347C27.0058 214.347 26.8064 214.255 26.6703 214.083L8.41832 190.772C8.32024 190.646 8.26959 190.489 8.27276 190.328L8.66831 177.704C8.6778 177.397 8.893 177.132 9.19043 177.06C9.50052 176.977 9.80116 177.121 9.95304 177.39L21.2783 197.596L27.8443 213.398C27.9772 213.714 27.8538 214.08 27.5564 214.254C27.4488 214.317 27.3286 214.347 27.2114 214.347ZM9.65242 190.122L24.6452 209.268L20.0473 198.194L9.96253 180.215L9.65242 190.122Z" fill="black"/>
<path d="M77.8349 22.764H77.8191L68.5886 22.5694C68.2785 22.5631 68.0127 22.3479 67.9368 22.0457C67.864 21.7435 68.0032 21.4302 68.2754 21.2815L85.8534 11.6476C86.0179 11.5543 86.2204 11.5353 86.3976 11.597L92.8846 13.7551C93.1472 13.8421 93.3308 14.0779 93.3529 14.3532C93.375 14.6285 93.2295 14.8895 92.9858 15.0161L78.1513 22.6865C78.0532 22.7371 77.9456 22.764 77.8349 22.764ZM71.1866 21.2498L77.6735 21.3875L90.91 14.5445L86.2489 12.994L71.1866 21.2498Z" fill="black"/>
<path d="M1.58985 118.035C1.4791 118.035 1.36519 118.008 1.26393 117.953C0.979135 117.799 0.839903 117.469 0.931668 117.158L5.71301 100.588C5.73518 100.506 5.77312 100.43 5.82377 100.362L13.8043 89.8833C14.0068 89.6191 14.3644 89.5321 14.6618 89.6871C14.9561 89.8358 15.1048 90.1744 15.0099 90.4924L9.61783 108.961C9.59252 109.055 9.54505 109.142 9.48176 109.216L2.11197 117.796C1.97591 117.951 1.78602 118.035 1.58985 118.035ZM6.99458 101.091L3.12457 114.51L8.3426 108.433L12.6556 93.66L6.99458 101.091Z" fill="black"/>
<path d="M153.321 274.62C153.134 274.62 152.951 274.543 152.821 274.403L148.66 269.97C148.495 269.796 148.435 269.552 148.495 269.323C148.559 269.094 148.736 268.912 148.961 268.844L166.346 263.605C166.418 263.581 166.488 263.57 166.564 263.575L189.74 264.228C190.085 264.238 190.366 264.5 190.404 264.842C190.439 265.182 190.218 265.499 189.885 265.581L153.486 274.599C153.432 274.614 153.375 274.62 153.321 274.62ZM150.419 269.837L153.546 273.171L184.67 265.459L166.637 264.951L150.419 269.837Z" fill="black"/>
<path d="M138.043 7.26344L112.829 4.79365C112.478 4.75885 112.212 4.46615 112.209 4.11649C112.206 3.76524 112.469 3.46937 112.817 3.42825L130.578 1.35718L151.95 4.05797C152.295 4.10068 152.552 4.39182 152.552 4.73672C152.552 5.08161 152.298 5.37276 151.957 5.41864L138.043 7.26344ZM119.275 4.05003L138.018 5.8996L146.565 4.75567L130.572 2.7194L119.275 4.05003Z" fill="black"/>
<path d="M113.52 274.063C113.434 274.063 113.349 274.047 113.27 274.016L92.8596 265.98C92.7235 265.926 92.6064 265.831 92.5273 265.706L88.594 259.468C88.4358 259.214 88.4579 258.887 88.651 258.659C88.8408 258.428 89.1605 258.349 89.4389 258.469L120.772 271.525C121.054 271.642 121.225 271.93 121.193 272.234C121.158 272.538 120.927 272.782 120.627 272.834L113.637 274.052C113.599 274.06 113.558 274.063 113.52 274.063ZM93.5715 264.784L113.592 272.668L118.073 271.886L90.9135 260.569L93.5715 264.784Z" fill="black"/>
<path d="M256.497 198.593C256.409 198.593 256.323 198.576 256.238 198.543C255.969 198.432 255.798 198.164 255.811 197.872L256.539 183.281C256.545 183.203 256.561 183.127 256.589 183.055L270.987 147.978C271.12 147.653 271.474 147.483 271.813 147.579C272.148 147.676 272.36 148.011 272.3 148.356L265.304 188.811C265.282 188.936 265.225 189.053 265.142 189.148L257.013 198.361C256.88 198.511 256.69 198.593 256.497 198.593ZM257.906 183.468L257.282 195.981L263.984 188.385L269.879 154.295L257.906 183.468Z" fill="black"/>
<path d="M2.67192 129.852C2.32067 129.852 2.02007 129.585 1.98842 129.229L0.906206 117.412C0.890394 117.227 0.947374 117.041 1.06759 116.901L8.43738 108.32C8.62408 108.102 8.92469 108.023 9.1905 108.123C9.45947 108.218 9.63984 108.469 9.64616 108.754L10.0417 128.56C10.048 128.92 9.77591 129.226 9.41516 129.257L2.73204 129.849C2.71305 129.851 2.69087 129.852 2.67192 129.852ZM2.29852 117.575L3.29213 128.422L8.65572 127.947L8.30764 110.58L2.29852 117.575Z" fill="black"/>
<path d="M198.065 21.4714C198.049 21.4714 198.036 21.4714 198.02 21.4699L183.176 20.4984C182.996 20.4857 182.825 20.4035 182.705 20.2674L171.218 7.21761C171.016 6.98502 170.99 6.64486 171.161 6.38696C171.329 6.12906 171.652 6.01513 171.946 6.11008L200.112 15.1902C200.289 15.2472 200.435 15.3753 200.517 15.5446C200.599 15.7124 200.609 15.907 200.542 16.0826L198.707 21.0237C198.609 21.2943 198.349 21.4714 198.065 21.4714ZM183.55 19.1472L197.599 20.0665L199.008 16.2771L173.898 8.1827L183.55 19.1472Z" fill="black"/>
<path d="M183.221 20.5C183.142 20.5 183.059 20.4858 182.98 20.4573L165.655 13.9957L151.507 5.32373C151.232 5.15601 151.112 4.82216 151.216 4.51838C151.318 4.21619 151.625 4.04374 151.935 4.05479L171.804 6.07998C171.974 6.09738 172.136 6.17965 172.25 6.30939L183.736 19.3592C183.945 19.5965 183.964 19.943 183.787 20.2025C183.654 20.3923 183.442 20.5 183.221 20.5ZM154.786 5.72559L166.253 12.7663L180.901 18.2185L171.395 7.41852L154.786 5.72559Z" fill="black"/>
<path d="M267.538 105.012C267.348 105.012 267.162 104.933 267.029 104.784L261.982 99.1658L250.441 77.7938C250.4 77.7194 250.375 77.6371 250.365 77.5533L248.631 63.7361C248.587 63.3991 248.799 63.0811 249.125 62.9893C249.467 62.8897 249.799 63.0605 249.938 63.3706L268.165 104.045C268.304 104.354 268.196 104.716 267.912 104.901C267.798 104.976 267.668 105.012 267.538 105.012ZM251.71 77.2558L263.096 98.3811L265.133 100.639L250.565 68.1267L251.71 77.2558Z" fill="black"/>
<path d="M271.623 148.925C271.304 148.925 271.019 148.702 270.952 148.381L263.956 115.521L261.811 98.7941C261.773 98.4966 261.931 98.2087 262.206 98.0837C262.472 97.9587 262.798 98.022 263 98.2482L268.047 103.867C268.149 103.976 268.209 104.115 268.222 104.262L272.307 148.175C272.342 148.538 272.085 148.862 271.728 148.918C271.693 148.922 271.658 148.925 271.623 148.925ZM263.453 100.803L265.307 115.291L269.854 136.641L266.877 104.615L263.453 100.803Z" fill="black"/>
<path d="M231.869 39.967C231.844 39.967 231.819 39.9654 231.793 39.9623L221.699 38.8579C221.614 38.8484 221.528 38.8231 221.452 38.782L206.966 31.0436C206.741 30.9233 206.602 30.6891 206.602 30.4344C206.602 30.1797 206.744 29.9471 206.972 29.8284L217.354 24.4016C217.614 24.2592 217.943 24.3114 218.158 24.5266L232.357 38.7962C232.562 39.0019 232.613 39.3152 232.486 39.5778C232.372 39.8167 232.132 39.967 231.869 39.967ZM221.981 37.5083L230.012 38.3864L217.541 25.854L208.757 30.4439L221.981 37.5083Z" fill="black"/>
<path d="M207.289 31.1243C207.106 31.1243 206.925 31.0515 206.792 30.9123L197.568 21.2594C197.388 21.0696 197.331 20.7927 197.423 20.5459L199.258 15.6047C199.324 15.4212 199.47 15.2741 199.654 15.2029C199.831 15.1348 200.036 15.1443 200.214 15.2329L217.985 24.4001C218.212 24.5187 218.358 24.7529 218.358 25.0092C218.358 25.2655 218.216 25.4997 217.988 25.62L207.606 31.0468C207.507 31.099 207.397 31.1243 207.289 31.1243ZM198.859 20.6218L207.428 29.5896L216.181 25.0155L200.274 16.8088L198.859 20.6218Z" fill="black"/>
<path d="M9.3552 178.413C9.08308 178.413 8.83311 178.25 8.7255 177.995L2.04237 162.353C2.00757 162.277 1.98859 162.194 1.98541 162.11L1.29875 143.624C1.28925 143.332 1.46329 143.067 1.73226 142.961C2.00124 142.851 2.30818 142.927 2.5012 143.147L14.9846 157.434C15.1333 157.604 15.1903 157.838 15.1333 158.056L10.0197 177.897C9.94694 178.181 9.70012 178.389 9.40583 178.411C9.39002 178.411 9.37102 178.413 9.3552 178.413ZM3.35242 161.933L9.19382 175.601L13.7125 158.064L2.74486 145.51L3.35242 161.933Z" fill="black"/>
<path d="M14.4689 158.572C14.2759 158.572 14.086 158.49 13.9531 158.336L1.46971 144.049C1.35264 143.916 1.29248 143.742 1.29883 143.565L1.9855 129.132C2.00131 128.791 2.27029 128.512 2.61204 128.482L9.29517 127.89C9.66855 127.879 9.96918 128.106 10.0325 128.455L15.1461 157.767C15.1967 158.07 15.0416 158.373 14.7632 158.506C14.6714 158.55 14.5702 158.572 14.4689 158.572ZM2.68482 143.355L13.3709 155.585L8.78887 129.313L3.33035 129.797L2.68482 143.355Z" fill="black"/>
<path d="M54.5834 248.682C54.4315 248.682 54.2828 248.631 54.1594 248.535L43.8404 240.424C43.7866 240.383 43.7423 240.334 43.7043 240.28L35.9295 229.237C35.7618 229.001 35.7618 228.686 35.9263 228.449C36.0877 228.213 36.3852 228.106 36.6636 228.177L57.3744 233.615C57.7224 233.707 57.9408 234.053 57.8743 234.407L55.2574 248.123C55.2131 248.359 55.0486 248.554 54.8239 248.638C54.7448 248.668 54.6657 248.682 54.5834 248.682ZM44.7676 239.407L54.1214 246.758L56.4061 234.781L38.1319 229.982L44.7676 239.407Z" fill="black"/>
<path d="M57.2005 234.966C57.1435 234.966 57.0834 234.958 57.0265 234.944L36.3157 229.506C36.1828 229.471 36.0626 229.397 35.9708 229.292L23.8608 215.391C23.7184 215.228 23.6615 215.007 23.7089 214.795C23.7564 214.581 23.8988 214.404 24.0982 214.315L26.9303 213.035C27.1423 212.932 27.4018 212.958 27.6011 213.094L57.5897 233.713C57.865 233.903 57.9631 234.262 57.8239 234.566C57.71 234.814 57.4631 234.966 57.2005 234.966ZM36.8695 228.231L53.571 232.616L27.1423 214.445L25.5031 215.186L36.8695 228.231Z" fill="black"/>
<path d="M93.1094 266.027C93.0208 266.027 92.9322 266.01 92.8468 265.975L77.0028 259.38C76.8984 259.336 76.8066 259.268 76.7339 259.181L56.6687 234.714C56.4472 234.444 56.4661 234.051 56.7098 233.8C56.9535 233.551 57.3458 233.523 57.6211 233.737L89.597 258.559C89.6603 258.608 89.7141 258.668 89.7584 258.737L93.6917 264.975C93.8499 265.228 93.8277 265.554 93.6347 265.784C93.5018 265.942 93.3056 266.027 93.1094 266.027ZM77.6863 258.178L91.3722 263.874L88.6603 259.57L61.6051 238.567L77.6863 258.178Z" fill="black"/>
<path d="M77.2654 259.433C77.2306 259.433 77.1926 259.43 77.1578 259.423L67.8704 257.942C67.7691 257.926 67.671 257.888 67.5888 257.83L54.194 248.56C53.9694 248.405 53.8586 248.133 53.9092 247.867L56.5262 234.151C56.5768 233.888 56.773 233.68 57.0293 233.615C57.2951 233.543 57.5609 233.638 57.7318 233.844L77.797 258.311C77.9773 258.531 78.0027 258.841 77.8603 259.088C77.7369 259.303 77.509 259.433 77.2654 259.433ZM68.2406 256.612L75.5883 257.784L57.5989 235.849L55.3427 247.685L68.2406 256.612Z" fill="black"/>
<path d="M153.321 274.62C153.308 274.62 153.295 274.62 153.283 274.618L120.471 272.843C120.196 272.829 119.959 272.65 119.864 272.392C119.769 272.133 119.842 271.843 120.041 271.655L127.819 264.429C127.984 264.277 128.211 264.214 128.433 264.262L149.305 268.829C149.441 268.859 149.565 268.929 149.659 269.03L153.821 273.463C154.014 273.668 154.061 273.968 153.944 274.223C153.83 274.467 153.586 274.62 153.321 274.62ZM122.161 271.56L151.65 273.155L148.805 270.125L128.493 265.679L122.161 271.56Z" fill="black"/>
<path d="M189.721 265.602C189.594 265.602 189.471 265.567 189.357 265.497C189.11 265.342 188.986 265.046 189.053 264.76L190.951 256.54C190.983 256.396 191.062 256.265 191.179 256.17L203.947 245.457C204.058 245.364 204.194 245.309 204.34 245.297L213.646 244.652C213.928 244.609 214.222 244.805 214.333 245.084C214.44 245.362 214.358 245.68 214.127 245.869L190.154 265.447C190.031 265.549 189.876 265.602 189.721 265.602ZM192.236 257.074L190.841 263.113L211.586 246.171L204.656 246.652L192.236 257.074Z" fill="black"/>
<path d="M44.0304 48.696C43.8531 48.696 43.6791 48.6279 43.5462 48.495C43.3152 48.264 43.2772 47.9033 43.4576 47.6312L53.5582 32.3695C53.6025 32.303 53.6563 32.2461 53.7196 32.1986L68.1934 21.3338C68.4592 21.136 68.8231 21.1503 69.0699 21.3765C69.3104 21.5996 69.361 21.9651 69.187 22.2451L58.8111 38.9387C58.7605 39.0226 58.6908 39.0938 58.6086 39.1476L44.4101 48.5805C44.293 48.658 44.1633 48.696 44.0304 48.696ZM54.6373 33.2254L46.4732 45.5617L57.7257 38.0875L66.0891 24.6295L54.6373 33.2254Z" fill="black"/>
<path d="M57.1999 234.966C57.0639 234.966 56.9278 234.926 56.8107 234.846L26.8221 214.227C26.7145 214.151 26.6291 214.046 26.5784 213.923L20.0472 198.194C19.9491 197.963 19.9871 197.698 20.1453 197.501C20.3003 197.305 20.5566 197.209 20.8003 197.256L30.2396 198.925C30.4073 198.954 30.556 199.044 30.6605 199.179L57.741 233.857C57.9499 234.124 57.9309 234.502 57.6999 234.749C57.567 234.892 57.3835 234.966 57.1999 234.966ZM27.7682 213.209L53.9153 231.188L29.7396 200.231L21.7939 198.826L27.7682 213.209Z" fill="black"/>
<path d="M30.1193 200.288C30.0782 200.288 30.0402 200.285 29.9991 200.277L20.5598 198.607C20.3573 198.573 20.1833 198.448 20.082 198.267L8.75676 178.061C8.66817 177.908 8.64601 177.726 8.6903 177.555L13.8039 157.714C13.8799 157.423 14.133 157.216 14.4305 157.2C14.7342 157.176 15.0064 157.363 15.1108 157.645L30.7617 199.361C30.8472 199.59 30.806 199.851 30.6478 200.039C30.5149 200.197 30.3219 200.288 30.1193 200.288ZM21.1199 197.313L29.053 198.715L14.5887 160.164L10.089 177.631L21.1199 197.313Z" fill="black"/>
<path d="M120.51 272.845C120.421 272.845 120.329 272.827 120.247 272.791L88.9136 259.735C88.6098 259.61 88.4389 259.289 88.5022 258.968C88.5655 258.648 88.8471 258.415 89.1762 258.415L104.058 258.393L128.449 264.265C128.696 264.325 128.889 264.515 128.952 264.758C129.015 265.003 128.94 265.263 128.756 265.435L120.978 272.661C120.848 272.781 120.681 272.845 120.51 272.845ZM92.5842 259.779L120.367 271.354L126.883 265.299L103.897 259.748L92.5842 259.779Z" fill="black"/>
<path d="M249.312 64.3374C249.198 64.3374 249.084 64.3089 248.98 64.252L223.674 50.3051C223.497 50.207 223.37 50.0345 223.332 49.8336L221.102 38.3058C221.06 38.0922 221.124 37.8707 221.269 37.7109C221.421 37.548 221.627 37.4562 221.851 37.4942L231.946 38.5985C232.139 38.6191 232.316 38.7219 232.427 38.8801L249.869 63.2505C250.055 63.5115 250.036 63.8675 249.824 64.1064C249.691 64.2567 249.502 64.3374 249.312 64.3374ZM224.62 49.2577L246.992 61.5876L231.49 39.9292L222.627 38.9593L224.62 49.2577Z" fill="black"/>
<path d="M124.028 15.0398C123.949 15.0398 123.867 15.0256 123.791 14.9971L109.773 9.81229C109.583 9.74269 109.434 9.59237 109.365 9.40252C109.295 9.21423 109.314 9.0038 109.415 8.82818L112.301 3.76994C112.431 3.5342 112.684 3.41237 112.963 3.42659L138.018 5.89953C138.318 5.9296 138.562 6.14952 138.622 6.4438C138.686 6.7365 138.55 7.03555 138.287 7.18269L124.364 14.9528C124.259 15.0097 124.145 15.0398 124.028 15.0398ZM111.007 8.80601L123.971 13.6L135.705 7.05136L113.273 4.83632L111.007 8.80601Z" fill="black"/>
<path d="M189.721 265.602H189.702L166.526 264.948C166.228 264.939 165.972 264.743 165.887 264.458C165.801 264.175 165.909 263.868 166.152 263.698L176.589 256.423C176.699 256.346 176.832 256.303 176.968 256.3L191.607 256.009C191.834 255.966 192.018 256.099 192.151 256.264C192.287 256.427 192.334 256.643 192.287 256.851L190.388 265.07C190.319 265.382 190.04 265.602 189.721 265.602ZM168.646 263.633L189.18 264.213L190.752 257.4L177.202 257.669L168.646 263.633Z" fill="black"/>
<path d="M251.045 78.1545C250.887 78.1545 250.732 78.1007 250.605 77.9947L234.182 64.274L223.458 50.1183C223.262 49.8588 223.275 49.4996 223.487 49.2544C223.696 49.0076 224.056 48.9506 224.338 49.1025L249.644 63.0494C249.837 63.1554 249.966 63.3469 249.992 63.5652L251.726 77.3824C251.76 77.6624 251.621 77.9346 251.374 78.0706C251.27 78.126 251.159 78.1545 251.045 78.1545ZM226.496 51.8603L235.17 63.3326L250.147 75.8255L248.675 64.0826L226.496 51.8603Z" fill="black"/>
<path d="M58.2289 39.263C58.0169 39.263 57.8112 39.1634 57.6783 38.9877C57.5106 38.7615 57.498 38.4545 57.6467 38.2141L68.0226 21.5205C68.1492 21.3132 68.4024 21.2183 68.6207 21.1961L77.8511 21.3907C78.0473 21.3955 78.234 21.4857 78.3606 21.6375C78.4903 21.7894 78.5441 21.9888 78.5125 22.185L76.674 33.7333C76.6328 33.9991 76.4398 34.2143 76.1803 34.2871L58.4125 39.2377C58.3524 39.2551 58.289 39.263 58.2289 39.263ZM68.9814 22.5774L59.7415 37.442L75.3892 33.0831L77.0347 22.7467L68.9814 22.5774Z" fill="black"/>
<path d="M257.225 184.002C257.039 184.002 256.858 183.926 256.726 183.787L251.647 178.42C251.466 178.227 251.409 177.947 251.507 177.701L258.004 160.974C258.039 160.885 258.089 160.804 258.159 160.736L271.139 147.753C271.373 147.524 271.74 147.489 272.003 147.668C272.275 147.848 272.383 148.196 272.259 148.5L257.862 183.577C257.773 183.792 257.58 183.949 257.352 183.991C257.308 183.998 257.267 184.002 257.225 184.002ZM252.944 177.792L256.994 182.072L269.69 151.145L259.232 161.605L252.944 177.792Z" fill="black"/>
<path d="M242.961 219.603C242.879 219.603 242.799 219.589 242.72 219.559L229.443 214.572C229.231 214.493 229.069 214.312 229.015 214.092C228.962 213.872 229.022 213.638 229.174 213.47L256.716 182.857C256.912 182.64 257.219 182.57 257.488 182.681C257.757 182.792 257.925 183.059 257.912 183.35L257.185 197.941C257.178 198.062 257.14 198.177 257.074 198.278L243.537 219.288C243.407 219.489 243.189 219.603 242.961 219.603ZM230.867 213.64L242.682 218.079L255.821 197.69L256.444 185.211L230.867 213.64Z" fill="black"/>
<path d="M213.694 246.024C213.517 246.024 213.343 245.956 213.21 245.824C212.998 245.614 212.947 245.291 213.083 245.025L229.073 213.618C229.234 213.306 229.595 213.16 229.924 213.287L243.201 218.274C243.407 218.35 243.562 218.519 243.622 218.728C243.679 218.937 243.638 219.162 243.505 219.334L229.167 238.031C229.107 238.111 229.028 238.176 228.94 238.222L214.01 245.946C213.909 245.998 213.801 246.024 213.694 246.024ZM230.016 214.788L215.273 243.747L228.171 237.073L241.853 219.233L230.016 214.788Z" fill="black"/>
<path d="M271.624 148.925C271.456 148.925 271.291 148.864 271.162 148.745L256.764 135.577C256.628 135.453 256.549 135.281 256.539 135.097L255.811 116.608C255.799 116.258 256.052 115.953 256.397 115.902L264.526 114.7C264.906 114.643 265.225 114.883 265.298 115.236L272.294 148.096C272.358 148.388 272.225 148.687 271.965 148.835C271.858 148.895 271.741 148.925 271.624 148.925ZM257.9 134.757L270.507 146.286L264.089 116.152L257.207 117.17L257.9 134.757Z" fill="black"/>
<path d="M163.013 20.8844C162.899 20.8844 162.789 20.8559 162.684 20.8006L137.622 7.18591C137.363 7.04509 137.224 6.7508 137.278 6.45811C137.331 6.16541 137.566 5.94231 137.86 5.90275L151.773 4.05792C151.944 4.03102 152.09 4.07059 152.223 4.15286L166.254 12.7662C166.545 12.9434 166.662 13.3057 166.529 13.6175L163.646 20.4635C163.57 20.6423 163.425 20.7815 163.241 20.8449C163.165 20.8717 163.089 20.8844 163.013 20.8844ZM140.132 6.98657L162.675 19.2326L165.035 13.6286L151.713 5.45027L140.132 6.98657Z" fill="black"/>
<path d="M264.627 116.065C264.383 116.065 264.152 115.935 264.029 115.714L248.916 88.7251C248.843 88.5938 248.815 88.4435 248.834 88.2948L250.365 77.373C250.406 77.0787 250.631 76.8445 250.925 76.7923C251.22 76.7433 251.511 76.8809 251.65 77.142L263.095 98.3812C263.137 98.4555 263.162 98.5362 263.171 98.6201L265.307 115.292C265.348 115.617 265.155 115.928 264.842 116.03C264.773 116.054 264.7 116.065 264.627 116.065ZM250.226 88.2568L263.497 111.955L261.826 98.9207L251.435 79.6371L250.226 88.2568Z" fill="black"/>
<path d="M36.4896 79.3759C36.2712 79.3759 36.0624 79.2715 35.9326 79.0912L26.0313 65.4101C25.832 65.1348 25.8668 64.755 26.1105 64.5161L43.5524 47.5172C43.7486 47.3273 44.0397 47.272 44.2929 47.3748C44.546 47.4792 44.7106 47.7244 44.7169 47.9982L44.951 62.146C44.951 62.2504 44.9289 62.3548 44.8846 62.4498L37.1098 78.982C37.0085 79.2019 36.7965 79.3506 36.5528 79.3728C36.5307 79.3744 36.5117 79.3759 36.4896 79.3759ZM27.4933 65.0857L36.363 77.3444L43.5746 62.0083L43.3689 49.6104L27.4933 65.0857Z" fill="black"/>
<path d="M24.3792 91.1664H24.3666L14.3387 90.986C14.1045 90.9813 13.8894 90.8579 13.766 90.6585C13.6425 90.4592 13.6299 90.2108 13.7343 90.0004L25.9709 64.7092C26.0753 64.4925 26.2873 64.3453 26.5278 64.3248C26.7683 64.2979 27.0025 64.4086 27.1449 64.6064L37.0461 78.2875C37.2455 78.5628 37.2107 78.9441 36.967 79.1814L24.857 90.9718C24.7305 91.0968 24.5564 91.1664 24.3792 91.1664ZM15.4367 89.6317L24.1039 89.7883L35.5842 78.6118L26.705 66.342L15.4367 89.6317Z" fill="black"/>
<path d="M89.1762 259.789C89.0243 259.789 88.8756 259.738 88.7554 259.645L56.7795 234.822C56.5137 234.615 56.4377 234.246 56.5991 233.95C56.7542 233.656 57.1086 233.515 57.4282 233.632L96.3182 247.331C96.4511 247.377 96.565 247.464 96.6473 247.578L104.615 258.68C104.767 258.889 104.786 259.164 104.669 259.393C104.552 259.623 104.318 259.767 104.058 259.767L89.1762 259.789ZM60.966 236.333L89.4104 258.415L102.723 258.395L95.66 248.554L60.966 236.333Z" fill="black"/>
<path d="M145.242 21.1692C145.179 21.1692 145.113 21.1597 145.053 21.1423L123.839 15.013C123.573 14.9354 123.377 14.706 123.345 14.4307C123.317 14.1554 123.453 13.888 123.693 13.7536L137.616 5.98348C137.825 5.8664 138.072 5.86955 138.281 5.9803L163.343 19.595C163.615 19.7437 163.754 20.0585 163.681 20.3607C163.605 20.6645 163.336 20.8797 163.023 20.8844L145.252 21.1692H145.242ZM125.801 14.1507L145.334 19.7943L160.39 19.5538L137.955 7.36628L125.801 14.1507Z" fill="black"/>
<path d="M8.9592 109.455C8.78516 109.455 8.61427 109.388 8.48138 109.262C8.29785 109.085 8.22824 108.82 8.30101 108.575L13.6931 90.1063C13.7785 89.8136 14.0475 89.6127 14.3513 89.6127H14.3639L24.3918 89.7931C24.705 89.7994 24.9772 90.0177 25.0468 90.3247L27.8789 102.547C27.9612 102.892 27.765 103.242 27.4264 103.354L9.17438 109.42C9.10477 109.444 9.03198 109.455 8.9592 109.455ZM14.8639 90.9955L9.98445 107.703L26.4011 102.248L23.8317 91.1569L14.8639 90.9955Z" fill="black"/>
<path d="M9.35498 129.26C9.26004 129.26 9.16512 129.24 9.07336 129.2C8.83286 129.091 8.67464 128.854 8.66832 128.588L8.27277 108.782C8.26646 108.482 8.4563 108.211 8.74426 108.116L26.9963 102.05C27.24 101.963 27.5248 102.034 27.7114 102.232C27.895 102.427 27.9488 102.712 27.8475 102.96L21.3163 119.127C21.2751 119.228 21.2118 119.318 21.1264 119.389L9.80116 129.094C9.67459 129.204 9.51638 129.26 9.35498 129.26ZM9.6556 109.26L10.0132 127.107L20.1075 118.456L26.0185 103.822L9.6556 109.26Z" fill="black"/>
<path d="M75.9963 34.3124C75.8128 34.3124 75.6324 34.238 75.5027 34.1036C75.354 33.9485 75.2844 33.7317 75.3192 33.5182L77.1576 21.9698C77.1924 21.7547 77.3254 21.568 77.5184 21.4683L92.3529 13.7979C92.6567 13.646 93.0238 13.7314 93.2231 14.0004L104.726 29.6877C104.868 29.8839 104.9 30.1418 104.801 30.3664C104.707 30.5895 104.498 30.7446 104.257 30.7747L76.0818 34.3077C76.0533 34.3108 76.0248 34.3124 75.9963 34.3124ZM78.4582 22.5283L76.8191 32.8315L102.928 29.558L92.4636 15.2867L78.4582 22.5283Z" fill="black"/>
<path d="M104.172 30.7809C104.14 30.7809 104.112 30.7793 104.08 30.7746C103.897 30.7493 103.729 30.6511 103.618 30.5009L92.1157 14.8135C91.9828 14.6332 91.948 14.4006 92.0176 14.1902C92.0904 13.9782 92.2581 13.8136 92.4701 13.7503L109.811 8.51174C109.956 8.46744 110.108 8.47376 110.247 8.52441L124.266 13.7092C124.5 13.7947 124.667 14.0003 124.705 14.2456C124.747 14.4908 124.648 14.7377 124.455 14.8911L104.599 30.6322C104.476 30.7288 104.327 30.7809 104.172 30.7809ZM93.796 14.7835L104.305 29.1133L122.645 14.5731L109.988 9.8914L93.796 14.7835Z" fill="black"/>
<path d="M204.387 246.669C204.194 246.669 204.01 246.589 203.88 246.445C203.738 246.29 203.675 246.078 203.71 245.872L206.108 231.303C206.137 231.129 206.228 230.974 206.368 230.868L229.265 213.383C229.521 213.192 229.879 213.2 230.123 213.402C230.369 213.606 230.439 213.955 230.293 214.241L214.304 245.649C214.196 245.864 213.981 246.005 213.741 246.022L204.434 246.668C204.418 246.669 204.403 246.669 204.387 246.669ZM207.418 231.794L205.206 245.237L213.256 244.679L227.702 216.304L207.418 231.794Z" fill="black"/>
<path d="M258.643 161.909C258.612 161.909 258.583 161.907 258.552 161.902C258.34 161.874 258.153 161.749 258.048 161.564L251.552 150.24C251.454 150.069 251.435 149.864 251.498 149.675L256.577 134.847C256.65 134.629 256.83 134.463 257.055 134.406C257.279 134.346 257.52 134.407 257.688 134.564L272.085 147.732C272.225 147.859 272.307 148.036 272.31 148.223C272.313 148.411 272.241 148.592 272.108 148.725L259.127 161.708C258.998 161.838 258.824 161.909 258.643 161.909ZM252.897 149.827L258.792 160.102L270.63 148.261L257.536 136.284L252.897 149.827Z" fill="black"/>
<path d="M149.159 270.187C149.109 270.187 149.061 270.182 149.014 270.171L128.142 265.603C127.911 265.553 127.721 265.388 127.642 265.165C127.563 264.943 127.601 264.697 127.746 264.51L139.451 249.493C139.654 249.229 140.027 249.15 140.318 249.312L166.87 263.657C167.114 263.79 167.256 264.056 167.228 264.331C167.199 264.606 167.01 264.839 166.744 264.918L149.359 270.157C149.292 270.177 149.226 270.187 149.159 270.187ZM129.499 264.494L149.131 268.791L164.766 264.081L140.176 250.796L129.499 264.494Z" fill="black"/>
<path d="M128.287 265.619C128.233 265.619 128.179 265.613 128.126 265.6L103.896 259.748C103.738 259.708 103.596 259.613 103.501 259.48L95.5327 248.378C95.3777 248.164 95.3619 247.883 95.4853 247.65C95.6118 247.421 95.808 247.283 96.1213 247.293L140.024 249.231C140.28 249.242 140.508 249.395 140.615 249.628C140.723 249.862 140.691 250.136 140.533 250.338L128.828 265.355C128.695 265.524 128.496 265.619 128.287 265.619ZM104.466 258.472L128.018 264.162L138.631 250.542L97.4725 248.726L104.466 258.472Z" fill="black"/>
<path d="M249.514 89.0763C249.343 89.0763 249.175 89.013 249.046 88.8928L224.509 66.1395C224.322 65.9639 224.247 65.6965 224.316 65.4481C224.389 65.1997 224.591 65.013 224.845 64.9624L234.49 63.0732C234.692 63.0368 234.904 63.0875 235.062 63.2204L251.485 76.941C251.669 77.0929 251.757 77.3287 251.726 77.5628L250.194 88.4846C250.159 88.7377 249.985 88.9514 249.745 89.0368C249.669 89.0637 249.59 89.0763 249.514 89.0763ZM226.433 66.0509L249.017 86.9926L250.311 77.7495L234.433 64.4845L226.433 66.0509Z" fill="black"/>
<path d="M57.2005 234.966C56.9948 234.966 56.7923 234.874 56.6594 234.702L29.5788 200.023C29.4301 199.835 29.3921 199.582 29.4776 199.357L32.8856 190.348C32.971 190.124 33.1672 189.959 33.4046 189.917C33.645 189.874 33.8855 189.958 34.0438 190.14L45.4038 203.101C45.4544 203.159 45.4956 203.226 45.524 203.299L57.8366 234.025C57.9663 234.341 57.8397 234.703 57.5423 234.874C57.4347 234.936 57.3176 234.966 57.2005 234.966ZM30.8984 199.482L54.764 230.044L44.2931 203.917L33.7653 191.904L30.8984 199.482Z" fill="black"/>
<path d="M30.1192 200.288C29.8312 200.288 29.5781 200.11 29.4768 199.841L13.8259 158.126C13.7215 157.85 13.8069 157.539 14.0347 157.354C14.2657 157.169 14.5822 157.145 14.8353 157.305L28.9009 166.173C29.0559 166.272 29.1667 166.431 29.2047 166.613L34.198 190.451C34.2265 190.579 34.217 190.712 34.1695 190.836L30.7615 199.845C30.6603 200.11 30.404 200.288 30.1192 200.288ZM15.8289 159.554L30.1223 197.653L32.8152 190.537L27.9231 167.179L15.8289 159.554Z" fill="black"/>
<path d="M191.619 257.382C191.536 257.382 191.451 257.366 191.372 257.336C191.138 257.246 190.973 257.037 190.938 256.79L188.777 241.227C188.739 240.947 188.875 240.671 189.122 240.534L206.45 230.816C206.684 230.681 206.963 230.705 207.181 230.852C207.396 231.003 207.507 231.265 207.463 231.525L205.064 246.093C205.039 246.256 204.953 246.403 204.827 246.508L192.058 257.221C191.935 257.327 191.777 257.382 191.619 257.382ZM190.201 241.502L192.128 255.373L203.751 245.62L205.877 232.711L190.201 241.502Z" fill="black"/>
<path d="M166.544 264.948C166.433 264.948 166.319 264.921 166.218 264.866L139.666 250.52C139.403 250.378 139.261 250.082 139.318 249.789C139.372 249.495 139.612 249.27 139.91 249.234L169.743 245.57C169.974 245.546 170.253 245.655 170.398 245.87L177.553 256.605C177.759 256.917 177.679 257.336 177.373 257.55L166.937 264.825C166.819 264.907 166.683 264.948 166.544 264.948ZM142.21 250.335L166.5 263.456L176.037 256.808L169.49 246.984L142.21 250.335Z" fill="black"/>
<path d="M176.981 257.673C176.753 257.673 176.538 257.558 176.408 257.368L169.253 246.633C169.133 246.448 169.104 246.215 169.184 246.008C169.263 245.799 169.437 245.644 169.652 245.587L189.284 240.467C189.473 240.416 189.673 240.453 189.837 240.56C190.002 240.67 190.109 240.844 190.138 241.037L192.299 256.601C192.324 256.795 192.268 256.991 192.141 257.142C192.014 257.29 191.828 257.377 191.632 257.382L176.993 257.673L176.981 257.673ZM170.93 246.672L177.344 256.292L190.834 256.025L188.885 241.991L170.93 246.672Z" fill="black"/>
<path d="M54.5837 64.3991C54.473 64.3991 54.3622 64.3722 54.2609 64.3184C54.0046 64.1824 53.8622 63.9007 53.9034 63.6143L57.5487 38.4783C57.5899 38.2093 57.7829 37.9878 58.0455 37.915L75.8134 32.9644C76.0665 32.89 76.345 32.9755 76.5159 33.178C76.6899 33.3805 76.7311 33.6637 76.6235 33.9074L68.605 51.7717C68.567 51.8572 68.51 51.9331 68.4404 51.998L55.0457 64.2187C54.916 64.3374 54.7514 64.3991 54.5837 64.3991ZM58.8429 39.1175L55.5393 61.9119L67.412 51.0787L74.7723 34.6794L58.8429 39.1175Z" fill="black"/>
<path d="M54.5831 64.3991C54.5483 64.3991 54.5135 64.3959 54.4818 64.3912L44.1628 62.8359C43.8306 62.7853 43.5837 62.5037 43.5774 62.1683L43.3433 48.0204C43.3401 47.7862 43.454 47.5663 43.6502 47.4382L57.8487 38.0052C58.0702 37.8533 58.3676 37.8549 58.5955 37.9957C58.8233 38.1413 58.9467 38.4071 58.9087 38.6745L55.2634 63.8105C55.2349 63.9925 55.14 64.1555 54.9913 64.2631C54.8742 64.3516 54.7287 64.3991 54.5831 64.3991ZM44.9413 61.5654L54.004 62.9309L57.3297 39.9988L44.7229 48.3732L44.9413 61.5654Z" fill="black"/>
<path d="M256.497 117.268C256.304 117.268 256.118 117.185 255.988 117.041L242.451 102.027C242.261 101.816 242.22 101.512 242.346 101.261L248.9 88.0843C249.014 87.8565 249.242 87.7094 249.498 87.703H249.514C249.761 87.703 249.992 87.8375 250.112 88.0543L265.225 115.043C265.335 115.241 265.342 115.478 265.244 115.681C265.142 115.883 264.949 116.024 264.728 116.057L256.599 117.26C256.564 117.264 256.532 117.268 256.497 117.268ZM243.783 101.454L256.76 115.848L263.541 114.845L249.549 89.8595L243.783 101.454Z" fill="black"/>
<path d="M229.683 214.616C229.569 214.616 229.459 214.589 229.354 214.532C229.076 214.379 228.936 214.054 229.022 213.747L235.816 188.94C235.857 188.788 235.949 188.656 236.078 188.564L251.748 177.39C252.027 177.191 252.403 177.226 252.647 177.477L257.726 182.844C257.969 183.104 257.976 183.509 257.735 183.775L230.193 214.388C230.06 214.537 229.873 214.616 229.683 214.616ZM237.075 189.54L231.11 211.317L256.292 183.327L252.058 178.854L237.075 189.54Z" fill="black"/>
<path d="M14.4689 158.572C14.4341 158.572 14.3993 158.569 14.3644 158.564C14.0733 158.52 13.8423 158.293 13.7917 158.004L8.67809 128.692C8.63694 128.454 8.72556 128.21 8.90909 128.053L20.2343 118.348C20.5033 118.122 20.8894 118.133 21.1457 118.362L30.5849 127.007C30.8128 127.216 30.8729 127.553 30.7305 127.829L15.0796 158.2C14.9593 158.431 14.722 158.572 14.4689 158.572ZM10.0989 128.841L14.7948 155.756L29.2686 127.666L20.6647 119.786L10.0989 128.841Z" fill="black"/>
<path d="M147.711 32.7634C147.701 32.7634 147.689 32.7634 147.679 32.7618L104.141 30.7793C103.856 30.7666 103.606 30.5784 103.52 30.3047C103.432 30.0325 103.52 29.7335 103.745 29.5563L123.601 13.8152C123.776 13.6728 124 13.6316 124.219 13.6933L145.432 19.8227C145.676 19.8939 145.863 20.0917 145.913 20.3401L148.382 31.9343C148.426 32.1415 148.372 32.3583 148.233 32.5213C148.103 32.6747 147.913 32.7634 147.711 32.7634ZM106.036 29.4914L146.853 31.3505L144.657 21.0283L124.177 15.111L106.036 29.4914Z" fill="black"/>
<path d="M189.72 46.1755C189.549 46.1755 189.378 46.1106 189.249 45.9872L162.541 20.6961C162.333 20.4999 162.269 20.1945 162.38 19.9319L165.263 13.0858C165.405 12.7456 165.788 12.5842 166.136 12.7076L183.461 19.1693C183.673 19.2484 183.831 19.4256 183.885 19.6455L190.385 45.3211C190.461 45.617 190.331 45.9271 190.068 46.0806C189.961 46.1438 189.84 46.1755 189.72 46.1755ZM163.829 20.0268L188.473 43.364L182.645 20.3306L166.272 14.225L163.829 20.0268Z" fill="black"/>
<path d="M189.721 46.1755C189.651 46.1755 189.581 46.1645 189.512 46.1439C189.287 46.0711 189.113 45.8876 189.056 45.6566L182.556 19.981C182.503 19.769 182.553 19.5427 182.693 19.3734C182.835 19.2041 183.037 19.1123 183.265 19.1282L198.109 20.0996C198.28 20.1107 198.442 20.1867 198.562 20.31L207.786 29.9629C207.916 30.099 207.985 30.2841 207.976 30.4724C207.966 30.6607 207.878 30.8363 207.735 30.9581L190.167 46.0094C190.04 46.1185 189.882 46.1755 189.721 46.1755ZM184.12 20.5601L190.113 44.2469L206.292 30.3886L197.755 21.4524L184.12 20.5601Z" fill="black"/>
<path d="M224.006 50.3904C223.977 50.3904 223.949 50.3888 223.923 50.3857L189.638 46.1708C189.366 46.1376 189.141 45.9477 189.062 45.6866C188.983 45.4272 189.068 45.144 189.274 44.9683L206.842 29.9171C207.057 29.7351 207.364 29.7019 207.611 29.8316L222.098 37.57C222.281 37.6681 222.411 37.8422 222.449 38.0463L224.68 49.574C224.721 49.7892 224.658 50.0123 224.509 50.1721C224.376 50.3129 224.196 50.3904 224.006 50.3904ZM191.35 44.9968L223.151 48.9079L221.164 38.6269L207.38 31.2635L191.35 44.9968Z" fill="black"/>
<path d="M224.978 66.323C224.857 66.323 224.74 66.2913 224.636 66.2328L189.379 46.0853C189.097 45.9224 188.967 45.5822 189.068 45.2721C189.173 44.9604 189.518 44.7784 189.803 44.8069L224.088 49.0218C224.275 49.0456 224.443 49.1421 224.554 49.2892L235.17 63.3326C235.312 63.5225 235.347 63.7709 235.265 63.9924C235.179 64.2139 234.986 64.3753 234.755 64.4212L225.11 66.3103C225.066 66.3182 225.022 66.323 224.978 66.323ZM193.024 46.5869L225.098 64.9132L233.414 63.2852L223.633 50.3493L193.024 46.5869Z" fill="black"/>
<path d="M189.72 46.1755C189.65 46.1755 189.581 46.1644 189.511 46.1423L147.501 32.7302C147.267 32.6558 147.09 32.4612 147.039 32.2191L144.571 20.6249C144.527 20.424 144.577 20.2152 144.704 20.0554C144.834 19.894 145.027 19.7991 145.232 19.7959L163.003 19.5111C163.124 19.538 163.355 19.576 163.484 19.6994L190.192 44.9905C190.426 45.2105 190.473 45.5617 190.312 45.8386C190.185 46.0522 189.957 46.1755 189.72 46.1755ZM148.299 31.5435L187.065 43.9209L162.744 20.8891L146.087 21.1549L148.299 31.5435Z" fill="black"/>
<path d="M96.09 248.664C96.0141 248.664 95.9381 248.652 95.8622 248.625L56.9722 234.926C56.6685 234.82 56.4818 234.517 56.5197 234.199C56.5577 233.879 56.8108 233.629 57.1305 233.596L83.1162 230.947C83.2364 230.942 83.3598 230.957 83.4706 231.006L99.9885 238.497C100.324 238.649 100.479 239.04 100.34 239.382L96.7261 248.237C96.6185 248.501 96.3622 248.664 96.09 248.664ZM60.3233 234.651L95.7008 247.112L98.8177 239.475L83.0719 232.333L60.3233 234.651Z" fill="black"/>
<path d="M242.961 102.253C242.742 102.253 242.534 102.147 242.404 101.966L228.066 82.0214C228.012 81.947 227.974 81.8632 227.952 81.773L224.307 65.7882C224.24 65.4955 224.373 65.1918 224.636 65.0414C224.889 64.8895 225.221 64.9291 225.446 65.1332L249.982 87.8865C250.204 88.0938 250.264 88.4229 250.128 88.695L243.575 101.871C243.467 102.087 243.255 102.231 243.018 102.25C242.999 102.251 242.98 102.253 242.961 102.253ZM229.262 81.3332L242.853 100.24L248.669 88.5432L226.142 67.6521L229.262 81.3332Z" fill="black"/>
<path d="M28.5344 167.44C28.4078 167.44 28.2781 167.404 28.1673 167.334L14.1018 158.466C13.8012 158.276 13.6967 157.887 13.8581 157.57L29.509 127.199C29.6451 126.941 29.9331 126.789 30.2147 126.833C30.5026 126.875 30.7337 127.093 30.7938 127.378L34.2018 144.305C34.2208 144.4 34.2176 144.497 34.1986 144.592L29.2053 166.904C29.1546 167.121 29.0027 167.301 28.797 167.388C28.7148 167.423 28.623 167.44 28.5344 167.44ZM15.3675 157.64L28.0756 165.654L32.8253 144.434L29.8318 129.569L15.3675 157.64Z" fill="black"/>
<path d="M236.477 189.809C236.356 189.809 236.233 189.777 236.125 189.712C235.891 189.573 235.762 189.307 235.796 189.038L238.056 170.853C238.084 170.622 238.227 170.421 238.435 170.32L258.342 160.605C258.592 160.48 258.899 160.524 259.108 160.717C259.317 160.909 259.387 161.208 259.282 161.471L252.786 178.197C252.738 178.322 252.653 178.43 252.545 178.507L236.875 189.681C236.755 189.766 236.616 189.809 236.477 189.809ZM239.372 171.391L237.35 187.656L251.58 177.509L257.368 162.608L239.372 171.391Z" fill="black"/>
<path d="M57.2002 234.966H57.1939C56.9154 234.963 56.6654 234.792 56.5642 234.534L44.2516 203.808C44.1251 203.496 44.2453 203.14 44.5333 202.966L54.5833 196.878C54.8681 196.706 55.2383 196.759 55.4566 197.017L67.478 210.977C67.6489 211.175 67.6932 211.453 67.5919 211.694L57.8331 234.548C57.7223 234.801 57.4755 234.966 57.2002 234.966ZM45.742 203.838L57.2192 232.483L66.1585 211.548L54.7953 198.353L45.742 203.838Z" fill="black"/>
<path d="M77.2655 61.029C77.0883 61.029 76.9205 60.961 76.7908 60.8392L67.5034 51.9869C67.2946 51.7859 67.2313 51.4743 67.3516 51.2085L75.37 33.3441C75.4681 33.1258 75.6738 32.9738 75.9111 32.9454L104.087 29.4124C104.365 29.376 104.647 29.5215 104.78 29.7747C104.913 30.0279 104.875 30.3364 104.685 30.55L77.7781 60.7981C77.6547 60.9373 77.4806 61.0212 77.294 61.0275C77.2845 61.0291 77.275 61.029 77.2655 61.029ZM68.804 51.3287L77.2244 59.3551L102.444 31.0024L76.4649 34.2585L68.804 51.3287Z" fill="black"/>
<path d="M44.8875 204.24C44.6945 204.24 44.5047 204.158 44.3717 204.006L33.0117 191.045C32.9326 190.956 32.8788 190.848 32.8566 190.733L27.8633 166.894C27.8095 166.643 27.9013 166.382 28.1006 166.22C28.3063 166.057 28.5753 166.021 28.8094 166.125L41.065 171.517C41.2865 171.614 41.4384 171.818 41.47 172.057L45.5679 203.465C45.6058 203.764 45.4445 204.055 45.1692 204.178C45.0806 204.219 44.9824 204.24 44.8875 204.24ZM34.1635 190.276L43.9161 201.402L40.16 172.619L29.4803 167.919L34.1635 190.276Z" fill="black"/>
<path d="M238.737 171.623C238.623 171.623 238.509 171.595 238.407 171.54C238.211 171.432 238.082 171.236 238.053 171.016L235.794 151.379C235.775 151.194 235.829 151.011 235.946 150.867C236.063 150.723 236.23 150.633 236.417 150.617L252.087 149.215C252.353 149.202 252.609 149.327 252.742 149.557L259.238 160.88C259.333 161.045 259.356 161.243 259.299 161.423C259.245 161.605 259.115 161.755 258.944 161.839L239.037 171.554C238.942 171.6 238.841 171.623 238.737 171.623ZM237.24 151.92L239.306 169.894L257.682 160.928L251.771 150.622L237.24 151.92Z" fill="black"/>
<path d="M139.992 250.603C139.983 250.603 139.973 250.603 139.961 250.601L96.0583 248.663C95.8368 248.653 95.6311 248.536 95.5109 248.348C95.3906 248.16 95.3685 247.926 95.4539 247.718L99.0676 238.863C99.1562 238.646 99.3492 238.488 99.5834 238.447L121.677 234.468C121.857 234.426 122.076 234.483 122.231 234.61L140.426 249.383C140.654 249.569 140.739 249.883 140.635 250.16C140.533 250.427 140.277 250.603 139.992 250.603ZM97.0931 247.335L137.945 249.139L121.611 235.874L100.197 239.731L97.0931 247.335Z" fill="black"/>
<path d="M228.623 82.3078C228.604 82.3078 228.588 82.3062 228.569 82.3062L213.64 81.1401C213.434 81.1227 213.244 81.0152 213.127 80.8427L189.154 45.8765C188.974 45.6139 188.999 45.2594 189.214 45.0237C189.436 44.7848 189.784 44.7342 190.062 44.8924L225.32 65.0398C225.484 65.1364 225.604 65.2962 225.649 65.4844L229.294 81.4692C229.342 81.6812 229.285 81.9043 229.142 82.0705C229.012 82.2208 228.823 82.3078 228.623 82.3078ZM214.074 79.7969L227.747 80.8648L224.377 66.0825L191.98 47.571L214.074 79.7969Z" fill="black"/>
<path d="M57.2004 234.966C56.9821 234.966 56.7764 234.863 56.6466 234.686C56.5042 234.49 56.4726 234.233 56.5675 234.01L66.3264 211.156C66.4751 210.812 66.8675 210.645 67.2188 210.789L83.0279 217.23C83.2779 217.333 83.4456 217.573 83.4551 217.845L83.8728 231.61C83.8823 231.969 83.6133 232.278 83.2557 232.314L57.27 234.963C57.2479 234.964 57.2225 234.966 57.2004 234.966ZM67.3264 212.315L58.2889 233.479L82.4805 231.012L82.0944 218.332L67.3264 212.315Z" fill="black"/>
<path d="M113.519 46.3638C113.282 46.3638 113.057 46.2388 112.931 46.0299L103.583 30.447C103.453 30.2303 103.453 29.9597 103.583 29.743C103.71 29.5278 103.944 29.3917 104.203 29.4091L147.742 31.3916C148.014 31.4027 148.254 31.5751 148.352 31.8298C148.447 32.0846 148.387 32.3741 148.191 32.5656L138.688 41.9431C138.59 42.0412 138.461 42.1077 138.325 42.1314L113.636 46.3542C113.595 46.3606 113.557 46.3638 113.519 46.3638ZM105.418 30.8379L113.867 44.9208L137.878 40.8135L146.109 32.6906L105.418 30.8379Z" fill="black"/>
<path d="M229.683 122.824C229.661 122.824 229.636 122.823 229.614 122.821C229.354 122.794 229.136 122.625 229.041 122.383L213.051 80.7003C212.969 80.4804 213.004 80.2336 213.143 80.0437C213.286 79.8554 213.507 79.7684 213.748 79.77L228.677 80.9361C228.879 80.9519 229.063 81.0563 229.18 81.2208L243.518 101.166C243.682 101.395 243.692 101.701 243.537 101.938L230.259 122.509C230.133 122.707 229.914 122.824 229.683 122.824ZM214.725 81.224L229.838 120.63L242.132 101.587L228.253 82.2809L214.725 81.224Z" fill="black"/>
<path d="M257.226 135.757C257.128 135.757 257.026 135.735 256.935 135.692L229.392 122.759C229.212 122.676 229.079 122.517 229.022 122.327C228.968 122.136 229 121.932 229.107 121.766L242.385 101.194C242.499 101.014 242.692 100.898 242.907 100.883C243.084 100.859 243.328 100.947 243.47 101.106L257.007 116.121C257.115 116.241 257.178 116.394 257.185 116.554L257.912 135.043C257.922 135.282 257.805 135.51 257.605 135.643C257.492 135.719 257.359 135.757 257.226 135.757ZM230.686 121.85L256.495 133.969L255.821 116.856L243.053 102.691L230.686 121.85Z" fill="black"/>
<path d="M236.477 151.987C236.16 151.987 235.882 151.769 235.809 151.455L229.015 122.293C228.955 122.038 229.047 121.769 229.252 121.604C229.455 121.44 229.736 121.403 229.974 121.516L257.516 134.449C257.833 134.597 257.988 134.961 257.874 135.293L252.795 150.122C252.707 150.378 252.479 150.558 252.207 150.582L236.537 151.984C236.518 151.985 236.496 151.987 236.477 151.987ZM230.673 123.361L237.008 150.563L251.64 149.255L256.377 135.429L230.673 123.361Z" fill="black"/>
<path d="M206.785 232.101C206.744 232.101 206.703 232.097 206.665 232.09C206.475 232.056 206.308 231.944 206.206 231.781L197.723 218.38C197.609 218.201 197.583 217.98 197.656 217.782L203.523 201.411C203.589 201.228 203.729 201.08 203.909 201.008C204.083 200.933 204.285 200.938 204.466 201.023L229.98 213.311C230.195 213.415 230.341 213.622 230.366 213.86C230.388 214.097 230.29 214.33 230.1 214.475L207.203 231.96C207.083 232.052 206.934 232.101 206.785 232.101ZM199.061 217.929L206.966 230.414L228.376 214.062L204.558 202.591L199.061 217.929Z" fill="black"/>
<path d="M229.683 214.616C229.582 214.616 229.48 214.594 229.385 214.548L203.871 202.261C203.662 202.159 203.517 201.96 203.488 201.731C203.457 201.5 203.545 201.27 203.722 201.12L217.728 189.163C217.848 189.062 217.997 189.004 218.152 188.999L236.455 188.436H236.477C236.686 188.436 236.885 188.532 237.015 188.698C237.151 188.869 237.195 189.094 237.138 189.304L230.344 214.111C230.29 214.307 230.154 214.469 229.968 214.554C229.876 214.595 229.781 214.616 229.683 214.616ZM205.415 201.481L229.24 212.953L235.568 189.837L218.437 190.364L205.415 201.481Z" fill="black"/>
<path d="M40.7896 172.832C40.6947 172.832 40.6029 172.813 40.5143 172.774L28.2587 167.382C27.9581 167.25 27.7936 166.924 27.8632 166.603L32.8565 144.291C32.9008 144.105 33.0179 143.943 33.1856 143.847L44.5457 137.308C44.7672 137.173 45.0425 137.186 45.2672 137.33C45.4823 137.472 45.5994 137.727 45.5678 137.985L41.4699 172.228C41.4446 172.443 41.318 172.634 41.1313 172.742C41.0238 172.802 40.9067 172.832 40.7896 172.832ZM29.3283 166.353L40.2168 171.144L44.0426 139.181L34.1318 144.886L29.3283 166.353Z" fill="black"/>
<path d="M27.2117 103.389C26.8952 103.389 26.6168 103.172 26.544 102.857L23.7119 90.6348C23.6581 90.4006 23.7277 90.1554 23.9018 89.9877L36.0118 78.1973C36.2776 77.9426 36.7016 77.9378 36.9674 78.1957L57.6781 98.1818C57.868 98.3637 57.9344 98.639 57.8522 98.889C57.7699 99.139 57.5516 99.3209 57.2921 99.3558L27.3034 103.382C27.2718 103.387 27.2402 103.389 27.2117 103.389ZM25.1359 90.7012L27.7401 101.938L55.7036 98.1833L36.4927 79.645L25.1359 90.7012Z" fill="black"/>
<path d="M57.2002 99.362C57.0261 99.362 56.8552 99.2956 56.7224 99.169L36.0116 79.1829C35.8028 78.9788 35.7427 78.6624 35.8692 78.3966L43.6441 61.8644C43.7738 61.5907 44.0586 61.4261 44.3655 61.4783L54.6845 63.0336C55.001 63.0811 55.2446 63.3421 55.2668 63.6617L57.8837 98.6247C57.9058 98.9079 57.7508 99.1753 57.4913 99.2972C57.3995 99.3399 57.2983 99.362 57.2002 99.362ZM37.3185 78.5374L56.3806 96.9318L53.9409 64.3089L44.6693 62.9118L37.3185 78.5374Z" fill="black"/>
<path d="M57.2003 99.3621C57.156 99.3621 57.1085 99.3574 57.061 99.3479C56.7604 99.2862 56.5389 99.033 56.5168 98.7261L53.8998 63.7631C53.884 63.5527 53.9663 63.347 54.1213 63.2062L67.5161 50.9838C67.7787 50.7386 68.1901 50.7433 68.4527 50.9933L77.7401 59.8456C77.9616 60.0576 78.0154 60.3899 77.873 60.6604L57.8078 98.9935C57.6876 99.2229 57.4534 99.3621 57.2003 99.3621ZM55.2922 63.9941L57.7066 96.2294L76.4174 60.4816L67.9686 52.4283L55.2922 63.9941Z" fill="black"/>
<path d="M33.5274 145.128C33.4325 145.128 33.3344 145.108 33.2458 145.067C33.0433 144.976 32.8977 144.793 32.8534 144.578L29.4454 127.65C29.4011 127.432 29.4675 127.205 29.6194 127.044L56.7 98.2055C56.9183 97.9682 57.2696 97.9239 57.5449 98.0821C57.8234 98.2451 57.9499 98.5758 57.855 98.8811L45.5425 138.108C45.4919 138.273 45.3779 138.412 45.2292 138.497L33.8692 145.036C33.7647 145.097 33.6445 145.128 33.5274 145.128ZM30.863 127.726L34.0115 143.37L44.3115 137.44L55.6463 101.332L30.863 127.726Z" fill="black"/>
<path d="M30.1196 128.2C29.9551 128.2 29.7873 128.14 29.6545 128.02L20.2152 119.375C20.0063 119.182 19.9367 118.877 20.0443 118.611L26.5755 102.444C26.6673 102.216 26.8761 102.055 27.1198 102.022L57.1084 97.995C57.3964 97.9523 57.6748 98.101 57.8109 98.3621C57.9438 98.62 57.8995 98.9333 57.7002 99.1453L30.6196 127.984C30.4835 128.128 30.3032 128.2 30.1196 128.2ZM21.4967 118.684L30.0848 126.55L55.3775 99.612L27.6989 103.329L21.4967 118.684Z" fill="black"/>
<path d="M77.2652 61.029C77.0026 61.029 76.7621 60.8787 76.645 60.6382C76.528 60.3898 76.5691 60.0923 76.7526 59.8867L103.659 29.6386C103.802 29.4756 104.023 29.3965 104.235 29.4107C104.453 29.4313 104.65 29.5532 104.76 29.7414L114.108 45.3243C114.295 45.636 114.206 46.0394 113.905 46.2451L93.4952 60.1288C93.3908 60.1999 93.2706 60.2395 93.144 60.2458L77.3 61.0274C77.2874 61.029 77.2779 61.029 77.2652 61.029ZM104.064 31.2492L78.8664 59.5766L92.8813 58.8852L112.598 45.4746L104.064 31.2492Z" fill="black"/>
<path d="M153.321 49.7624C153.214 49.7624 153.109 49.7371 153.011 49.688L137.898 42.0667C137.702 41.967 137.566 41.7787 137.531 41.5604C137.496 41.342 137.569 41.1205 137.727 40.9655L147.23 31.5879C147.41 31.4091 147.666 31.3442 147.92 31.4234L189.93 44.8355C190.24 44.9336 190.439 45.2374 190.404 45.5617C190.369 45.8845 190.113 46.1408 189.787 46.1724L153.388 49.7592C153.365 49.7608 153.343 49.7624 153.321 49.7624ZM139.369 41.2724L153.451 48.3732L186.344 45.1313L147.897 32.8568L139.369 41.2724Z" fill="black"/>
<path d="M169.826 246.938C169.668 246.938 169.513 246.884 169.389 246.782C169.219 246.642 169.127 246.429 169.139 246.209L170.196 228.963C170.209 228.797 170.279 228.639 170.396 228.522L182.468 216.423C182.645 216.247 182.892 216.182 183.132 216.244C183.37 216.307 183.553 216.492 183.62 216.73L190.122 240.954C190.17 241.13 190.144 241.318 190.053 241.476C189.958 241.635 189.809 241.75 189.632 241.796L170 246.916C169.943 246.93 169.883 246.938 169.826 246.938ZM171.554 229.306L170.57 245.348L188.616 240.641L182.601 218.234L171.554 229.306Z" fill="black"/>
<path d="M189.457 241.818C189.366 241.818 189.277 241.801 189.192 241.765C188.995 241.682 188.85 241.515 188.793 241.309L182.29 217.084C182.233 216.871 182.284 216.641 182.426 216.47C182.565 216.299 182.733 216.23 183.005 216.222L198.352 217.328C198.568 217.344 198.764 217.462 198.881 217.646L207.365 231.047C207.466 231.207 207.497 231.4 207.45 231.582C207.406 231.765 207.285 231.92 207.121 232.012L189.793 241.73C189.688 241.788 189.575 241.818 189.457 241.818ZM183.869 217.662L189.891 240.102L205.817 231.169L197.906 218.673L183.869 217.662Z" fill="black"/>
<path d="M44.8874 204.24C44.7862 204.24 44.6849 204.218 44.59 204.172C44.3811 204.071 44.2355 203.873 44.2071 203.642L40.1092 172.234C40.0808 172.011 40.163 171.788 40.3276 171.636C40.4984 171.486 40.7294 171.426 40.9446 171.478L57.5702 175.359C57.9119 175.44 58.1366 175.761 58.0986 176.107L55.6178 197.544C55.5956 197.755 55.4754 197.943 55.2918 198.052L45.2418 204.14C45.1342 204.207 45.0108 204.24 44.8874 204.24ZM41.5997 173.039L45.4317 202.42L54.2951 197.052L56.662 176.558L41.5997 173.039Z" fill="black"/>
<path d="M139.993 250.603C139.765 250.603 139.546 250.489 139.42 250.294C139.277 250.077 139.268 249.797 139.398 249.571L156.425 220.217C156.52 220.057 156.672 219.942 156.852 219.897C157.023 219.853 157.219 219.878 157.378 219.975L171.241 228.419C171.459 228.552 171.582 228.794 171.57 229.049L170.513 246.294C170.491 246.623 170.237 246.892 169.908 246.934L140.075 250.598C140.05 250.601 140.021 250.603 139.993 250.603ZM157.26 221.513L141.28 249.066L169.177 245.639L170.171 229.376L157.26 221.513Z" fill="black"/>
<path d="M99.7035 239.809C99.6054 239.809 99.5105 239.788 99.4187 239.747L82.9008 232.256C82.6444 232.139 82.4862 231.878 82.4989 231.596C82.5147 231.314 82.6982 231.071 82.9672 230.98L109.526 222.054C109.779 221.968 110.054 222.036 110.238 222.226L122.291 234.665C122.468 234.847 122.528 235.112 122.449 235.354C122.373 235.596 122.167 235.774 121.917 235.819L99.8237 239.798C99.7858 239.806 99.7446 239.809 99.7035 239.809ZM85.0557 231.726L99.7921 238.409L120.408 234.695L109.551 223.492L85.0557 231.726Z" fill="black"/>
<path d="M57.4151 176.715C57.3644 176.715 57.3106 176.709 57.26 176.697L40.6345 172.815C40.2927 172.734 40.0649 172.411 40.1092 172.063L44.207 137.82C44.2387 137.542 44.438 137.312 44.7102 137.24C44.9633 137.164 45.2671 137.265 45.438 137.491L55.488 150.91C55.5607 151.009 55.6082 151.128 55.6209 151.253L58.0986 175.96C58.1207 176.18 58.0353 176.398 57.8676 176.544C57.741 176.655 57.5796 176.715 57.4151 176.715ZM41.5426 171.617L56.6366 175.141L54.2728 151.579L45.3652 139.686L41.5426 171.617Z" fill="black"/>
<path d="M139.992 250.603C139.837 250.603 139.682 250.549 139.559 250.449L121.364 235.676C121.202 235.545 121.11 235.349 121.11 235.142C121.11 234.934 121.205 234.738 121.367 234.608L138.28 221.035C138.394 220.945 138.53 220.892 138.673 220.885L156.982 219.877C157.213 219.85 157.469 219.987 157.605 220.203C157.738 220.418 157.741 220.688 157.614 220.907L140.587 250.261C140.486 250.433 140.315 250.555 140.116 250.592C140.074 250.599 140.033 250.603 139.992 250.603ZM122.889 235.146L139.802 248.876L155.789 221.316L138.967 222.244L122.889 235.146Z" fill="black"/>
<path d="M218.174 190.372C217.946 190.372 217.731 190.258 217.605 190.067L209.744 178.302C209.618 178.115 209.592 177.881 209.675 177.672C209.754 177.463 209.934 177.307 210.149 177.254L238.572 170.271C238.793 170.215 239.024 170.274 239.192 170.424C239.359 170.574 239.445 170.797 239.416 171.021L237.157 189.206C237.116 189.543 236.837 189.798 236.499 189.809L218.196 190.372L218.174 190.372ZM211.428 178.354L218.535 188.988L235.869 188.455L237.932 171.842L211.428 178.354Z" fill="black"/>
<path d="M210.314 178.607C210.108 178.607 209.912 178.515 209.779 178.352C209.615 178.147 209.58 177.862 209.697 177.621L217.557 161.331C217.617 161.206 217.715 161.102 217.836 161.032L236.138 150.702C236.338 150.59 236.588 150.587 236.787 150.688C236.993 150.792 237.132 150.993 237.16 151.221L239.42 170.858C239.458 171.201 239.236 171.521 238.901 171.603L210.478 178.587C210.425 178.601 210.368 178.607 210.314 178.607ZM218.699 162.122L211.567 176.906L237.986 170.415L235.914 152.406L218.699 162.122Z" fill="black"/>
<path d="M204.387 90.6744C204.203 90.6744 204.029 90.6016 203.9 90.4719L191.131 77.6467C191.014 77.528 190.945 77.3714 190.932 77.2037L189.034 45.5301C189.018 45.2216 189.204 44.9399 189.499 44.8402C189.79 44.7453 190.113 44.8434 190.287 45.1013L214.26 80.0675C214.443 80.3365 214.415 80.7003 214.184 80.9345L204.877 90.4671C204.751 90.5985 204.571 90.6728 204.387 90.6744ZM192.29 76.8619L204.381 89.0099L212.807 80.3791L190.552 47.9175L192.29 76.8619Z" fill="black"/>
<path d="M57.2004 99.3621C57.0421 99.3621 56.8839 99.3067 56.7542 99.1976C56.5105 98.9903 56.4441 98.6406 56.5928 98.3574L76.658 60.0244C76.7688 59.8092 76.9903 59.6684 77.2308 59.6573L93.0747 58.8757C93.2994 58.8488 93.5019 58.958 93.6411 59.1273C93.7803 59.2966 93.8278 59.5212 93.774 59.7317L89.8407 74.9871C89.8027 75.139 89.711 75.2734 89.5876 75.3668L57.6117 99.226C57.4883 99.3162 57.3459 99.3621 57.2004 99.3621ZM77.6928 61.0085L59.2066 96.3211L88.5718 74.4111L92.2108 60.2918L77.6928 61.0085Z" fill="black"/>
<path d="M120.509 59.257C120.263 59.257 120.028 59.1226 119.905 58.8979L112.915 46.0047C112.811 45.8101 112.804 45.576 112.902 45.3766C112.997 45.1788 113.184 45.038 113.402 45L138.091 40.7772C138.252 40.755 138.385 40.7772 138.518 40.8421L153.631 48.4634C153.881 48.59 154.029 48.859 154.004 49.139C153.979 49.4206 153.783 49.6564 153.51 49.7355L120.699 59.2302C120.636 59.2476 120.573 59.257 120.509 59.257ZM114.579 46.193L120.848 57.7571L151.45 48.9017L138.1 42.1695L114.579 46.193Z" fill="black"/>
<path d="M89.1757 75.5028C89.0238 75.5028 88.8719 75.4522 88.7485 75.3525C88.5365 75.1848 88.4447 74.9063 88.5112 74.6453L92.4445 59.3899C92.4856 59.2285 92.5837 59.0877 92.7229 58.9927L113.133 45.1091C113.291 45.0015 113.494 44.9636 113.68 45.0094C113.87 45.0553 114.029 45.1787 114.123 45.3496L121.114 58.2428C121.199 58.4057 121.218 58.5956 121.164 58.7712C121.11 58.9484 120.99 59.0956 120.826 59.1795L89.4921 75.4253C89.3909 75.4775 89.2833 75.5028 89.1757 75.5028ZM93.7102 59.9832L90.2231 73.4998L119.573 58.2824L113.279 46.6723L93.7102 59.9832Z" fill="black"/>
<path d="M83.1859 232.317C83.0467 232.317 82.9106 232.275 82.7935 232.194C82.6163 232.07 82.5056 231.868 82.4992 231.651L82.0815 217.886C82.0752 217.655 82.186 217.437 82.3727 217.304L98.5584 205.925C98.7071 205.817 98.9001 205.773 99.0805 205.813C99.264 205.846 99.4222 205.952 99.5266 206.107L110.317 222.324C110.434 222.501 110.463 222.725 110.393 222.925C110.323 223.128 110.165 223.286 109.963 223.354L83.4042 232.281C83.3346 232.305 83.2587 232.317 83.1859 232.317ZM83.4644 218.214L83.8441 230.685L108.678 222.339L98.7735 207.453L83.4644 218.214Z" fill="black"/>
<path d="M166.544 70.2405C166.465 70.2405 166.386 70.2263 166.31 70.1994L148.925 63.8944C148.584 63.771 148.4 63.4039 148.501 63.0558L152.662 48.8827C152.741 48.6137 152.976 48.4207 153.254 48.3922L189.654 44.8054C189.939 44.8038 190.214 44.932 190.337 45.1899C190.464 45.4478 190.413 45.7579 190.214 45.9651L167.038 70.0301C166.908 70.1662 166.728 70.2405 166.544 70.2405ZM150.001 62.8233L166.358 68.7564L187.932 46.3544L153.849 49.7133L150.001 62.8233Z" fill="black"/>
<path d="M54.9371 152.008C54.9213 152.008 54.9054 152.008 54.8865 152.006C54.6903 151.992 54.5068 151.892 54.3865 151.732L44.3365 138.314C44.2068 138.137 44.1657 137.907 44.2321 137.697L56.5446 98.4698C56.6332 98.1771 56.8706 97.9983 57.2218 97.9888C57.5319 97.9998 57.7945 98.215 57.8673 98.5156L67.6262 139.178C67.6832 139.41 67.6135 139.655 67.4427 139.823L55.4213 151.807C55.2915 151.936 55.1175 152.008 54.9371 152.008ZM45.6466 137.773L55.0131 150.277L66.2022 139.124L57.111 101.25L45.6466 137.773Z" fill="black"/>
<path d="M229.683 122.824C229.607 122.824 229.528 122.812 229.455 122.785L206.558 114.704C206.304 114.616 206.127 114.39 206.102 114.125L203.703 90.0557C203.684 89.8532 203.754 89.6538 203.896 89.5082L213.203 79.9756C213.364 79.8063 213.595 79.7351 213.832 79.7826C214.06 79.8301 214.25 79.9914 214.336 80.2098L230.325 121.892C230.42 122.142 230.36 122.424 230.173 122.617C230.043 122.751 229.866 122.824 229.683 122.824ZM207.425 113.556L228.509 120.995L213.437 81.7018L205.102 90.2377L207.425 113.556Z" fill="black"/>
<path d="M82.7684 218.552C82.6799 218.552 82.5944 218.535 82.509 218.502L66.6998 212.061C66.5163 211.986 66.3771 211.836 66.3106 211.649C66.2473 211.463 66.2663 211.259 66.3612 211.086L83.9582 180.041C84.0817 179.825 84.3095 179.693 84.5563 179.693C84.8063 179.694 85.0373 179.83 85.1575 180.047L99.5554 206.154C99.7231 206.461 99.6345 206.847 99.3497 207.048L83.164 218.427C83.0469 218.51 82.9077 218.552 82.7684 218.552ZM67.9403 211.083L82.6798 217.089L98.0555 206.279L84.5468 181.786L67.9403 211.083Z" fill="black"/>
<path d="M66.9587 212.111C66.7594 212.111 66.5695 212.024 66.4398 211.872L54.4184 197.913C54.2918 197.767 54.2349 197.577 54.257 197.386L56.7347 175.949C56.7537 175.764 56.8518 175.595 57.0005 175.481C57.1492 175.368 57.3391 175.315 57.5226 175.351L84.6633 179.702C84.888 179.737 85.0779 179.879 85.176 180.082C85.2709 180.284 85.2646 180.522 85.1538 180.718L67.5568 211.763C67.4461 211.958 67.2467 212.086 67.0252 212.108C67.003 212.11 66.9809 212.111 66.9587 212.111ZM55.6525 197.245L66.8417 210.238L83.4704 180.901L58.0131 176.819L55.6525 197.245Z" fill="black"/>
<path d="M84.5556 181.066C84.5208 181.066 84.4828 181.063 84.448 181.056L57.3073 176.705C56.9972 176.656 56.763 176.406 56.7314 176.096L54.2537 151.389C54.2347 151.185 54.3075 150.981 54.4531 150.835L66.4745 138.852C66.6358 138.69 66.8605 138.616 67.0884 138.663C67.313 138.706 67.4997 138.858 67.5883 139.067L85.1853 180.109C85.2866 180.338 85.2518 180.604 85.0967 180.802C84.967 180.969 84.7644 181.066 84.5556 181.066ZM58.0446 175.433L83.4323 179.504L66.7276 140.538L55.6524 151.577L58.0446 175.433Z" fill="black"/>
<path d="M218.174 162.317C218.054 162.317 217.934 162.285 217.826 162.222L203.821 153.992C203.65 153.89 203.529 153.718 203.491 153.522C203.457 153.324 203.51 153.121 203.637 152.966L229.151 121.704C229.316 121.5 229.585 121.414 229.838 121.468C230.094 121.528 230.294 121.726 230.351 121.982L237.144 151.145C237.214 151.441 237.081 151.748 236.815 151.898L218.513 162.228C218.408 162.287 218.291 162.317 218.174 162.317ZM205.207 153.213L218.18 160.838L235.692 150.955L229.332 123.653L205.207 153.213Z" fill="black"/>
<path d="M176.981 84.3393C176.769 84.3393 176.563 84.2412 176.43 84.0608L165.994 69.962C165.795 69.6931 165.817 69.3197 166.051 69.0776L189.227 45.0127C189.413 44.8165 189.704 44.7484 189.958 44.8449C190.214 44.9399 190.388 45.1756 190.407 45.4478L192.306 77.1214C192.321 77.4078 192.16 77.6736 191.897 77.7907L177.259 84.2808C177.17 84.3203 177.075 84.3393 176.981 84.3393ZM167.44 69.6124L177.205 82.8014L190.904 76.7274L189.129 47.0932L167.44 69.6124Z" fill="black"/>
<path d="M121.797 235.83C121.617 235.83 121.44 235.759 121.304 235.621L109.251 223.182C109.102 223.028 109.035 222.815 109.064 222.603C109.096 222.392 109.225 222.207 109.412 222.104L138.331 206.067C138.546 205.947 138.803 205.953 139.011 206.075C139.22 206.197 139.35 206.422 139.35 206.665L139.397 221.568C139.397 221.777 139.302 221.975 139.141 222.104L122.228 235.678C122.101 235.779 121.949 235.83 121.797 235.83ZM110.861 222.87L121.854 234.216L138.024 221.241L137.98 207.83L110.861 222.87Z" fill="black"/>
<path d="M109.744 223.391C109.523 223.391 109.304 223.282 109.172 223.084L98.381 206.866C98.2608 206.683 98.2323 206.452 98.3114 206.245C98.3905 206.039 98.5614 205.882 98.7734 205.824L121.585 199.65C121.728 199.611 121.873 199.617 122.006 199.671L138.904 206.025C139.157 206.118 139.328 206.351 139.347 206.617C139.369 206.884 139.23 207.137 138.996 207.267L110.077 223.304C109.972 223.362 109.858 223.391 109.744 223.391ZM100.055 206.9L109.966 221.796L137.031 206.787L121.731 201.033L100.055 206.9Z" fill="black"/>
<path d="M128.288 75.7496C128.218 75.7496 128.148 75.7385 128.079 75.718C127.898 75.6594 127.75 75.5281 127.667 75.3556L119.889 58.863C119.804 58.6811 119.801 58.4706 119.883 58.2871C119.965 58.1052 120.127 57.9675 120.32 57.9106L153.131 48.4159C153.375 48.3447 153.628 48.4143 153.808 48.5915C153.985 48.7687 154.049 49.0282 153.979 49.2687L149.818 63.4418C149.767 63.6127 149.653 63.7583 149.498 63.8469L128.626 75.661C128.522 75.7196 128.405 75.7496 128.288 75.7496ZM121.475 59.0054L128.595 74.101L148.581 62.7884L152.308 50.0835L121.475 59.0054Z" fill="black"/>
<path d="M104.058 82.0388C103.963 82.0388 103.868 82.0198 103.783 81.9802L88.9009 75.4443C88.6572 75.3383 88.499 75.1025 88.4895 74.8383C88.48 74.5741 88.6256 74.3288 88.8598 74.207L120.193 57.9612C120.358 57.8789 120.56 57.8615 120.728 57.9201C120.905 57.9802 121.051 58.1083 121.13 58.2776L128.908 74.7702C128.996 74.9554 128.996 75.169 128.908 75.3541C128.822 75.5392 128.658 75.6768 128.462 75.7275L104.232 82.0166C104.175 82.0309 104.115 82.0388 104.058 82.0388ZM90.7679 74.7655L104.115 80.6275L127.313 74.6073L120.193 59.5085L90.7679 74.7655Z" fill="black"/>
<path d="M57.1997 99.3621C56.9086 99.3621 56.6459 99.177 56.551 98.8985C56.4529 98.6169 56.551 98.3036 56.7883 98.1248L88.7641 74.2656C88.9635 74.1168 89.2262 74.0883 89.4508 74.188L104.333 80.724C104.504 80.7984 104.637 80.9392 104.703 81.1148C104.766 81.2888 104.757 81.4835 104.675 81.6512L96.7067 98.1248C96.5959 98.3574 96.3618 98.5061 96.1055 98.5125L57.2155 99.3621H57.1997ZM89.2641 75.6057L59.3293 97.9429L95.6561 97.1486L103.13 81.6939L89.2641 75.6057Z" fill="black"/>
<path d="M204.169 154.086C204.131 154.086 204.09 154.083 204.052 154.075C203.805 154.033 203.603 153.862 203.52 153.628L197.654 136.915C197.6 136.763 197.603 136.597 197.66 136.447L206.144 113.817C206.273 113.467 206.663 113.285 207.014 113.41L229.911 121.49C230.123 121.565 230.284 121.737 230.345 121.952C230.405 122.168 230.357 122.399 230.215 122.571L204.701 153.833C204.568 153.995 204.375 154.086 204.169 154.086ZM199.033 136.695L204.413 152.017L228.535 122.46L207.191 114.929L199.033 136.695Z" fill="black"/>
<path d="M171.81 183.4C171.544 183.4 171.298 183.244 171.187 182.999C171.06 182.727 171.127 182.406 171.348 182.203L203.707 152.89C203.928 152.689 204.257 152.655 204.517 152.808L218.522 161.039C218.829 161.219 218.946 161.607 218.791 161.929L210.931 178.219C210.83 178.428 210.631 178.572 210.4 178.602L171.896 183.395C171.867 183.398 171.839 183.4 171.81 183.4ZM204.258 154.248L173.88 181.764L209.858 177.286L217.282 161.902L204.258 154.248Z" fill="black"/>
<path d="M204.169 202.329C204.049 202.329 203.928 202.297 203.821 202.235L171.462 183.305C171.209 183.157 171.079 182.863 171.139 182.575C171.196 182.286 171.434 182.067 171.725 182.031L210.229 177.239C210.488 177.21 210.741 177.324 210.884 177.539L218.744 189.304C218.937 189.594 218.883 189.981 218.62 190.208L204.615 202.164C204.488 202.273 204.327 202.329 204.169 202.329ZM173.905 183.143L204.093 200.804L217.266 189.559L209.979 178.655L173.905 183.143Z" fill="black"/>
<path d="M198.302 218.7C198.286 218.7 198.27 218.699 198.251 218.698L182.904 217.592C182.626 217.571 182.388 217.385 182.303 217.119L171.158 182.925C171.069 182.654 171.158 182.357 171.379 182.178C171.598 181.999 171.914 181.977 172.158 182.119L204.517 201.05C204.801 201.216 204.925 201.563 204.814 201.873L198.947 218.244C198.849 218.519 198.59 218.7 198.302 218.7ZM183.464 216.255L197.83 217.291L203.33 201.947L173.022 184.217L183.464 216.255Z" fill="black"/>
<path d="M170.883 229.693C170.76 229.693 170.636 229.659 170.526 229.593L156.663 221.149C156.378 220.975 156.261 220.622 156.381 220.312L171.171 182.463C171.279 182.192 171.608 182.053 171.829 182.026C172.12 182.036 172.374 182.224 172.462 182.501L183.607 216.695C183.689 216.94 183.623 217.209 183.442 217.391L171.37 229.49C171.238 229.623 171.06 229.693 170.883 229.693ZM157.868 220.275L170.779 228.139L182.174 216.72L171.753 184.749L157.868 220.275Z" fill="black"/>
<path d="M138.711 222.256C138.537 222.256 138.366 222.19 138.239 222.07C138.103 221.94 138.024 221.759 138.024 221.571L137.977 206.669C137.977 206.449 138.081 206.24 138.261 206.11L171.408 182.156C171.655 181.977 171.99 181.98 172.231 182.17C172.471 182.357 172.56 182.68 172.449 182.963L157.659 220.812C157.561 221.062 157.327 221.233 157.058 221.247L138.749 222.255C138.736 222.256 138.723 222.256 138.711 222.256ZM139.35 207.017L139.394 220.845L156.542 219.9L170.323 184.635L139.35 207.017Z" fill="black"/>
<path d="M66.959 140.024C66.6426 140.024 66.3673 139.807 66.2914 139.497L56.5325 98.8352C56.4629 98.5472 56.5863 98.2466 56.8394 98.0916C57.0926 97.9333 57.4185 97.9602 57.6432 98.1517L83.6289 120.144C83.7871 120.278 83.8757 120.476 83.8725 120.683L83.4548 138.812C83.4453 139.176 83.1542 139.47 82.7903 139.483L66.9812 140.024L66.959 140.024ZM58.3583 100.553L67.497 138.632L82.0973 138.132L82.4929 120.979L58.3583 100.553Z" fill="black"/>
<path d="M206.786 114.744C206.722 114.744 206.659 114.735 206.599 114.717L189.271 109.789C188.958 109.7 188.752 109.406 188.774 109.083L190.935 77.1166C190.951 76.8477 191.125 76.6135 191.378 76.5202C191.625 76.4236 191.91 76.4838 192.106 76.6784L204.874 89.5035C204.985 89.6159 205.055 89.763 205.07 89.9197L207.469 113.989C207.491 114.216 207.399 114.439 207.225 114.584C207.102 114.689 206.944 114.744 206.786 114.744ZM190.179 108.621L206.001 113.121L203.729 90.2993L192.201 78.7209L190.179 108.621Z" fill="black"/>
<path d="M138.663 207.354C138.581 207.354 138.499 207.34 138.423 207.309L121.525 200.955C121.171 200.823 120.99 200.427 121.123 200.073L127.237 183.775C127.335 183.513 127.582 183.338 127.86 183.328L171.791 182.026C172.136 182.094 172.364 182.208 172.459 182.491C172.557 182.778 172.456 183.093 172.212 183.27L139.065 207.224C138.948 207.309 138.806 207.354 138.663 207.354ZM122.649 199.911L138.559 205.895L169.598 183.466L128.36 184.687L122.649 199.911Z" fill="black"/>
<path d="M98.9537 207.173C98.7069 207.173 98.4759 207.04 98.3524 206.819L83.9546 180.711C83.8312 180.488 83.8407 180.218 83.9799 180.006C84.116 179.794 84.3597 179.672 84.6128 179.696L127.936 183.331C128.151 183.349 128.344 183.466 128.458 183.648C128.575 183.83 128.597 184.055 128.521 184.255L122.408 200.554C122.332 200.761 122.158 200.917 121.946 200.976L99.134 207.15C99.0739 207.165 99.0138 207.173 98.9537 207.173ZM85.7773 181.17L99.2954 205.683L121.247 199.742L126.917 184.623L85.7773 181.17Z" fill="black"/>
<path d="M83.1854 121.354C83.0241 121.354 82.869 121.299 82.7424 121.191L56.7567 99.1991C56.5384 99.0156 56.4561 98.715 56.5542 98.446C56.6491 98.177 56.8991 97.9951 57.1839 97.9888L96.0739 97.1391C96.365 97.1312 96.6941 97.3591 96.7605 97.6818L100.374 114.519C100.447 114.855 100.26 115.192 99.9376 115.309L83.4196 121.313C83.3437 121.34 83.2646 121.354 83.1854 121.354ZM59.0256 99.3225L83.3247 119.886L98.906 114.222L95.5391 98.5251L59.0256 99.3225Z" fill="black"/>
<path d="M189.458 109.816C189.417 109.816 189.376 109.812 189.335 109.805L169.703 106.194C169.507 106.158 169.339 106.039 169.238 105.87C169.136 105.699 169.111 105.493 169.174 105.305L176.329 83.439C176.389 83.2539 176.525 83.1036 176.702 83.0245L191.341 76.5344C191.559 76.4363 191.815 76.4632 192.012 76.6009C192.211 76.7385 192.322 76.9695 192.303 77.2084L190.141 109.175C190.129 109.371 190.034 109.551 189.879 109.672C189.759 109.765 189.61 109.816 189.458 109.816ZM170.722 104.985L188.825 108.314L190.857 78.2511L177.538 84.1558L170.722 104.985Z" fill="black"/>
<path d="M171.81 183.4C171.684 183.4 171.56 183.365 171.446 183.295C171.187 183.134 171.067 182.819 171.149 182.525L182.294 143.4C182.351 143.206 182.49 143.046 182.673 142.962L198.021 136.061C198.195 135.982 198.394 135.98 198.574 136.056C198.748 136.132 198.888 136.279 198.951 136.459L204.818 153.172C204.909 153.433 204.833 153.723 204.631 153.909L172.272 183.222C172.142 183.339 171.975 183.4 171.81 183.4ZM183.528 144.084L173.127 180.593L203.371 153.197L197.903 137.619L183.528 144.084Z" fill="black"/>
<path d="M182.955 144.275C182.803 144.275 182.654 144.225 182.531 144.128C182.328 143.97 182.233 143.712 182.281 143.462L188.784 109.002C188.818 108.812 188.932 108.646 189.097 108.545C189.261 108.442 189.461 108.414 189.644 108.469L206.972 113.398C207.159 113.45 207.311 113.576 207.4 113.747C207.485 113.92 207.494 114.119 207.428 114.298L198.944 136.928C198.881 137.1 198.751 137.238 198.584 137.314L183.236 144.215C183.145 144.255 183.05 144.275 182.955 144.275ZM189.992 109.994L183.873 142.423L197.761 136.178L205.881 114.515L189.992 109.994Z" fill="black"/>
<path d="M139.992 102.09C139.961 102.09 139.929 102.088 139.897 102.083C139.663 102.05 139.461 101.898 139.366 101.682L127.661 75.3414C127.515 75.0186 127.642 74.6389 127.949 74.4649L148.821 62.6507C148.995 62.5495 149.204 62.5352 149.394 62.6032L166.779 68.9082C166.987 68.9842 167.149 69.1582 167.206 69.375C167.266 69.5901 167.215 69.8212 167.073 69.9936L140.521 101.843C140.388 101.999 140.195 102.09 139.992 102.09ZM129.167 75.354L140.173 100.117L165.389 69.8654L149.223 64.0019L129.167 75.354Z" fill="black"/>
<path d="M169.826 106.205C169.794 106.205 169.762 106.203 169.731 106.199L139.897 102.083C139.65 102.049 139.441 101.884 139.353 101.651C139.261 101.419 139.305 101.155 139.464 100.963L166.016 69.114C166.152 68.9542 166.351 68.8862 166.563 68.8672C166.775 68.8735 166.971 68.9763 167.095 69.1456L177.531 83.2444C177.664 83.4232 177.702 83.6542 177.632 83.8662L170.477 105.732C170.386 106.017 170.12 106.205 169.826 106.205ZM141.312 100.892L169.351 104.76L176.218 83.776L166.513 70.6645L141.312 100.892Z" fill="black"/>
<path d="M139.992 102.09C139.973 102.09 139.954 102.088 139.935 102.087L96.0329 98.5092C95.8082 98.4918 95.6057 98.3637 95.4949 98.1659C95.381 97.9697 95.3747 97.7308 95.4728 97.5267L103.441 81.0531C103.526 80.8711 103.691 80.7382 103.884 80.6876L128.113 74.3984C128.455 74.313 128.781 74.476 128.914 74.7845L140.619 101.125C140.717 101.346 140.691 101.602 140.552 101.8C140.423 101.982 140.214 102.09 139.992 102.09ZM97.1436 97.2229L138.894 100.625L127.895 75.873L104.539 81.9375L97.1436 97.2229Z" fill="black"/>
<path d="M84.5563 181.066C84.5405 181.066 84.5215 181.064 84.5025 181.064C84.2494 181.044 84.0247 180.884 83.9266 180.65L66.3296 139.608C66.2379 139.399 66.2569 139.16 66.3803 138.969C66.5005 138.779 66.7093 138.659 66.9372 138.651L82.7463 138.11C82.933 138.094 83.1513 138.19 83.2843 138.345L99.47 156.887C99.6693 157.115 99.6978 157.445 99.5364 157.702L85.1386 180.743C85.012 180.944 84.7905 181.066 84.5563 181.066ZM67.9846 139.989L84.6703 178.901L98.103 157.406L82.4647 139.494L67.9846 139.989Z" fill="black"/>
<path d="M182.955 144.275C182.765 144.275 182.578 144.196 182.448 144.051L170.376 130.814C170.266 130.696 170.202 130.542 170.196 130.381L169.139 105.547C169.13 105.34 169.218 105.137 169.376 105.001C169.531 104.863 169.74 104.802 169.949 104.843L189.581 108.453C189.761 108.487 189.919 108.589 190.024 108.741C190.128 108.892 190.166 109.077 190.131 109.255L183.629 143.715C183.581 143.972 183.391 144.179 183.141 144.249C183.081 144.266 183.018 144.275 182.955 144.275ZM171.557 130.074L182.534 142.109L188.654 109.68L170.547 106.349L171.557 130.074Z" fill="black"/>
<path d="M127.879 184.702C127.86 184.702 127.841 184.7 127.822 184.698L84.4988 181.063C84.2615 181.044 84.0495 180.901 83.9419 180.686C83.8343 180.472 83.847 180.218 83.9736 180.015L98.3714 156.974C98.5549 156.688 98.9094 156.574 99.2321 156.71L122.044 166.771C122.212 166.847 122.345 166.988 122.411 167.162L128.525 183.778C128.604 183.998 128.566 184.244 128.426 184.431C128.294 184.602 128.091 184.702 127.879 184.702ZM85.7329 179.789L126.863 183.241L121.221 167.91L99.2194 158.206L85.7329 179.789Z" fill="black"/>
<path d="M171.81 183.4C171.522 183.4 171.266 183.221 171.165 182.95L156.375 142.737C156.277 142.47 156.356 142.171 156.568 141.984L170.431 129.836C170.712 129.593 171.143 129.612 171.39 129.89L183.462 143.127C183.623 143.302 183.68 143.548 183.617 143.777L172.472 182.901C172.389 183.186 172.133 183.388 171.836 183.4H171.81ZM157.827 142.706L171.728 180.498L182.189 143.769L170.829 131.313L157.827 142.706Z" fill="black"/>
<path d="M157.02 143.187C156.97 143.187 156.916 143.18 156.865 143.169C156.65 143.119 156.47 142.967 156.387 142.763L139.36 101.666C139.265 101.438 139.3 101.178 139.449 100.984C139.601 100.789 139.841 100.685 140.088 100.723L169.921 104.838C170.25 104.884 170.497 105.158 170.513 105.49L171.57 130.324C171.58 130.531 171.491 130.732 171.336 130.868L157.473 143.016C157.346 143.127 157.185 143.187 157.02 143.187ZM141.085 102.246L157.289 141.353L170.184 130.053L169.165 106.12L141.085 102.246Z" fill="black"/>
<path d="M127.88 184.702C127.592 184.702 127.335 184.523 127.234 184.252L121.121 167.636C121.057 167.464 121.067 167.274 121.143 167.108C121.222 166.942 121.361 166.814 121.535 166.752L138.433 160.711C138.632 160.638 138.857 160.667 139.034 160.781L172.181 182.135C172.434 182.298 172.551 182.607 172.472 182.896C172.393 183.186 172.13 183.39 171.829 183.4L127.899 184.702L127.88 184.702ZM122.649 167.812L128.354 183.314L169.58 182.093L138.575 162.119L122.649 167.812Z" fill="black"/>
<path d="M121.797 125.473C121.699 125.473 121.604 125.452 121.513 125.41L99.419 115.287C99.2196 115.197 99.0772 115.019 99.0329 114.807L95.4192 97.9698C95.3717 97.7578 95.4319 97.5363 95.5743 97.3733C95.7166 97.2104 95.9318 97.1376 96.147 97.1423L140.049 100.72C140.299 100.74 140.521 100.897 140.622 101.126C140.723 101.357 140.689 101.626 140.533 101.824L122.338 125.207C122.205 125.379 122.003 125.473 121.797 125.473ZM100.302 114.182L121.588 123.936L138.67 101.984L96.9539 98.5852L100.302 114.182Z" fill="black"/>
<path d="M98.9538 158.025C98.7576 158.025 98.5677 157.939 98.438 157.789L82.2523 139.247C82.1383 139.119 82.0782 138.951 82.0814 138.781L82.4991 120.652C82.5054 120.394 82.6573 120.16 82.8883 120.049C83.1193 119.934 83.4009 119.967 83.6035 120.123L110.162 140.576C110.45 140.796 110.516 141.201 110.317 141.5L99.5265 157.718C99.4063 157.896 99.2133 158.009 98.9981 158.023C98.9823 158.025 98.9696 158.025 98.9538 158.025ZM83.4611 138.546L98.881 156.21L108.817 141.274L83.8408 122.038L83.4611 138.546Z" fill="black"/>
<path d="M109.744 141.807C109.593 141.807 109.447 141.758 109.327 141.665L82.7683 121.212C82.5689 121.058 82.4677 120.81 82.5088 120.563C82.5468 120.315 82.7176 120.108 82.9518 120.022L99.4698 114.018C99.6438 113.958 99.8305 113.964 99.9887 114.04L122.082 124.163C122.272 124.248 122.411 124.414 122.462 124.615C122.513 124.815 122.471 125.027 122.351 125.194L110.298 141.529C110.187 141.676 110.023 141.774 109.839 141.801C109.808 141.804 109.776 141.807 109.744 141.807ZM84.5941 120.886L109.608 140.149L120.744 125.058L99.6723 115.405L84.5941 120.886Z" fill="black"/>
<path d="M121.766 168.086C121.671 168.086 121.576 168.067 121.487 168.027L98.6753 157.966C98.4917 157.884 98.3525 157.725 98.2955 157.531C98.2386 157.336 98.2702 157.126 98.381 156.958L109.171 140.741C109.276 140.586 109.434 140.48 109.618 140.446C109.804 140.415 109.991 140.453 110.137 140.559L139.056 160.796C139.268 160.944 139.378 161.195 139.344 161.45C139.309 161.705 139.135 161.918 138.894 162.005L121.997 168.046C121.921 168.071 121.845 168.086 121.766 168.086ZM99.9758 157.039L121.791 166.66L137.182 161.159L109.928 142.086L99.9758 157.039Z" fill="black"/>
<path d="M171.81 183.4C171.68 183.4 171.55 183.363 171.44 183.29L138.293 161.936C138.094 161.809 137.977 161.591 137.977 161.357L138.024 143.263C138.024 142.896 138.315 142.594 138.682 142.579L156.991 141.815C157.323 141.782 157.561 141.983 157.665 142.263L172.455 182.476C172.557 182.752 172.468 183.064 172.24 183.249C172.114 183.349 171.962 183.4 171.81 183.4ZM139.35 160.985L170.459 181.025L156.548 143.207L139.394 143.923L139.35 160.985Z" fill="black"/>
<path d="M138.711 143.951C138.518 143.951 138.335 143.87 138.205 143.728L121.291 125.25C121.067 125.003 121.051 124.629 121.257 124.365L139.452 100.982C139.604 100.788 139.841 100.694 140.085 100.723C140.328 100.756 140.534 100.914 140.626 101.14L157.653 142.237C157.742 142.445 157.719 142.681 157.599 142.869C157.479 143.059 157.273 143.177 157.049 143.185L138.74 143.949C138.73 143.951 138.721 143.951 138.711 143.951ZM122.696 124.75L139.002 142.565L156.011 141.855L139.809 102.756L122.696 124.75Z" fill="black"/>
<path d="M138.663 162.045C138.524 162.045 138.388 162.002 138.271 161.92L109.352 141.682C109.2 141.576 109.096 141.415 109.067 141.231C109.035 141.049 109.083 140.863 109.19 140.712L121.244 124.378C121.367 124.213 121.557 124.112 121.762 124.101C121.911 124.082 122.164 124.171 122.304 124.323L139.217 142.801C139.334 142.927 139.397 143.094 139.397 143.266L139.35 161.36C139.35 161.616 139.208 161.85 138.98 161.967C138.878 162.02 138.771 162.045 138.663 162.045ZM110.716 140.962L137.98 160.042L138.024 143.53L121.854 125.865L110.716 140.962Z" fill="black"/>
</svg>
