<svg width="196" height="210" viewBox="0 0 196 210" fill="none" xmlns="http://www.w3.org/2000/svg">
<path d="M0.579867 64.5258L0.578557 64.5238C0.544731 64.4736 0.556703 64.3992 0.611763 64.3615L0.611908 64.3614L51.3503 29.6455L97.7566 1.13521L97.7566 1.1353L97.7653 1.12971C97.7855 1.11674 97.8112 1.11129 97.8419 1.11857C97.8735 1.12606 97.9028 1.14568 97.9219 1.17521C97.9551 1.22857 97.9405 1.30221 97.8847 1.33899C97.8845 1.33908 97.8844 1.33917 97.8843 1.33925L0.745443 64.5612L0.74344 64.5625C0.726524 64.5736 0.706257 64.5803 0.679597 64.5803C0.641351 64.5803 0.604194 64.5623 0.579867 64.5258ZM0.16412 64.8029L0.163837 64.8031L0.16412 64.8029ZM57.9071 27.0704L57.3726 26.2254L51.4907 29.8399L51.4802 29.8464L51.4701 29.8533L45.0395 34.2537L45.5947 35.0853L57.9071 27.0704Z" fill="black" stroke="black"/>
<path d="M29.2412 175.459L29.2404 175.458L9.01011 137.431L9.0083 137.428C9.00263 137.418 8.99866 137.406 8.99704 137.391L8.99678 137.389L0.560401 64.4745C0.560398 64.4745 0.560395 64.4744 0.560391 64.4744C0.553318 64.4126 0.594877 64.355 0.658346 64.3431L0.675055 64.34L0.691513 64.3357C0.693038 64.3354 0.707937 64.3316 0.735711 64.3498C0.765068 64.3689 0.787325 64.4 0.795458 64.4312C0.795467 64.4313 0.795476 64.4313 0.795484 64.4313L29.4621 175.372L29.4622 175.372C29.4767 175.428 29.4473 175.489 29.3887 175.512L29.3878 175.513C29.3723 175.519 29.3585 175.521 29.3461 175.521C29.3006 175.521 29.261 175.497 29.2412 175.459ZM9.22207 137.244L9.23294 137.338L9.27734 137.421L26.9974 170.73L27.9229 170.37L2.81223 73.1959L1.83145 73.3784L9.22207 137.244Z" fill="black" stroke="black"/>
<path d="M97.7179 1.17459L97.7189 1.17298C97.7557 1.11552 97.8234 1.10646 97.8618 1.12654L97.8617 1.12665L97.872 1.13171L166.331 34.9717L166.333 34.9728C166.355 34.9834 166.372 34.9996 166.384 35.0222C166.384 35.0225 166.384 35.0227 166.385 35.023L186.625 73.0473L186.625 73.0475C186.652 73.098 186.639 73.16 186.597 73.1939L186.596 73.1953C186.571 73.2153 186.544 73.2239 186.519 73.2239C186.492 73.2239 186.466 73.2155 186.443 73.197C186.442 73.1968 186.442 73.1966 186.442 73.1963L97.7448 1.33294C97.7447 1.33287 97.7447 1.33279 97.7446 1.33272C97.6948 1.29203 97.686 1.22404 97.7179 1.17459ZM102.755 3.8127L102.219 4.64942L184.223 71.0893L184.979 70.4658L166.266 35.3115L166.191 35.1695L166.046 35.0982L102.755 3.8127Z" fill="black" stroke="black"/>
<path d="M29.2938 175.507L29.2938 175.507L29.2919 175.506C29.2437 175.483 29.2168 175.426 29.2305 175.372C29.2383 175.342 29.2499 175.329 29.2646 175.319C29.2818 175.306 29.3183 175.288 29.3819 175.282L144.201 180.621C144.202 180.621 144.202 180.621 144.202 180.621C144.258 180.624 144.302 180.663 144.315 180.711L144.315 180.713C144.328 180.761 144.308 180.816 144.261 180.845L97.8837 209.345C97.8836 209.345 97.8835 209.345 97.8834 209.345C97.8629 209.358 97.84 209.364 97.8194 209.364C97.8072 209.364 97.7896 209.361 97.7663 209.35C97.7661 209.35 97.7659 209.35 97.7657 209.349L29.2938 175.507ZM32.3 175.659L32.0553 176.606L97.565 208.983L97.8128 209.106L98.0483 208.961L142.422 181.693L143.805 180.843L142.183 180.768L32.3 175.659Z" fill="black" stroke="black"/>
<path d="M186.408 73.061L186.408 73.0603C186.419 73.0314 186.437 73.0128 186.456 73.0015C186.474 72.9908 186.5 72.9822 186.538 72.9858C186.593 72.9944 186.633 73.0368 186.639 73.0901L195.073 146.006C195.074 146.006 195.074 146.006 195.074 146.007C195.079 146.054 195.057 146.097 195.024 146.119L195.022 146.12L144.269 180.839C144.269 180.839 144.269 180.839 144.268 180.839C144.244 180.855 144.219 180.861 144.199 180.861C144.172 180.861 144.146 180.852 144.125 180.837C144.082 180.801 144.069 180.744 144.087 180.698C144.087 180.698 144.087 180.698 144.087 180.698L186.408 73.061ZM186.686 75.5809L185.724 75.4554L145.048 178.907L144.453 180.421L145.796 179.503L194.578 146.134L194.827 145.964L194.793 145.664L186.686 75.5809Z" fill="black" stroke="black"/>
<path d="M84.0731 91.3325L84.0729 91.3321C84.0498 91.2979 84.0459 91.2566 84.0621 91.2186L84.0623 91.2181C84.078 91.1811 84.1131 91.1531 84.1521 91.1459C84.1523 91.1459 84.1524 91.1459 84.1525 91.1459L186.496 72.9851C186.496 72.985 186.496 72.985 186.496 72.985C186.538 72.9781 186.586 72.9969 186.611 73.0274L186.614 73.0305C186.638 73.0603 186.647 73.1056 186.631 73.1472C186.631 73.1474 186.631 73.1475 186.631 73.1477L144.311 180.784C144.311 180.784 144.31 180.784 144.31 180.784C144.294 180.826 144.255 180.856 144.212 180.861L144.211 180.861L144.199 180.861C144.16 180.861 144.122 180.842 144.099 180.808C144.099 180.808 144.099 180.807 144.099 180.807L84.0731 91.3325ZM85.1292 91.2159L84.3741 91.3499L84.8014 91.9868L143.639 179.691L144.171 180.483L144.52 179.596L186.003 74.0897L186.33 73.2584L185.45 73.4145L85.1292 91.2159Z" fill="black" stroke="black"/>
<path d="M29.3319 175.52L29.3276 175.519C29.2785 175.511 29.2424 175.477 29.2307 175.431L29.2304 175.43L0.563717 64.4894L0.563722 64.4894L0.563157 64.4873C0.552986 64.4486 0.564918 64.4043 0.593878 64.3755C0.629695 64.3444 0.678348 64.334 0.721736 64.3464C0.722486 64.3466 0.723234 64.3468 0.723981 64.347L84.2065 91.1489C84.2068 91.149 84.2071 91.1491 84.2075 91.1492C84.2439 91.1615 84.2733 91.1911 84.2854 91.2238C84.2981 91.2612 84.292 91.3011 84.2735 91.3294L84.6693 91.5873L84.2735 91.3295L29.4475 175.465L29.4458 175.468C29.4247 175.501 29.3882 175.521 29.3463 175.521C29.3415 175.521 29.3358 175.52 29.3319 175.52ZM1.71402 64.9185L0.850061 64.6411L1.07708 65.5197L29.1108 174.009L29.3946 175.107L30.0138 174.157L83.6283 91.8812L83.9859 91.3324L83.3622 91.1321L1.71402 64.9185Z" fill="black" stroke="black"/>
<path d="M84.0728 91.2012L84.0736 91.2C84.0943 91.1681 84.1305 91.1466 84.173 91.1453C84.2139 91.1455 84.2499 91.1656 84.2708 91.197L84.2716 91.1982L144.298 180.674L144.299 180.676C144.322 180.71 144.327 180.759 144.303 180.803C144.281 180.839 144.242 180.861 144.199 180.861H144.182L29.3436 175.522C29.3435 175.522 29.3434 175.522 29.3432 175.522C29.2983 175.519 29.2595 175.494 29.2397 175.455C29.2211 175.419 29.2226 175.373 29.2461 175.336C29.2462 175.336 29.2463 175.335 29.2465 175.335L84.0728 91.2012ZM30.0377 174.559L29.5608 175.291L30.4334 175.332L142.976 180.564L143.967 180.61L143.414 179.786L84.5949 92.1097L84.1736 91.4818L83.7608 92.1153L30.0377 174.559Z" fill="black" stroke="black"/>
<path d="M84.0885 91.3504L84.0856 91.3476C84.0624 91.3253 84.0473 91.2887 84.0537 91.2456C84.0537 91.2455 84.0537 91.2454 84.0537 91.2453L97.7005 1.2185L97.7005 1.21836C97.7064 1.17948 97.7342 1.14321 97.7738 1.1275C97.8199 1.1104 97.8657 1.12059 97.8949 1.14395C97.8949 1.14401 97.895 1.14407 97.8951 1.14412L186.593 73.0079C186.593 73.0081 186.593 73.0083 186.593 73.0084C186.633 73.0413 186.646 73.0902 186.636 73.1314L186.635 73.1341C186.623 73.1792 186.585 73.2148 186.54 73.2231C186.54 73.2231 186.54 73.2232 186.539 73.2232L84.2019 91.3831C84.201 91.3832 84.2 91.3834 84.1991 91.3835C84.1906 91.3847 84.1811 91.3854 84.1722 91.3854C84.1431 91.3854 84.1125 91.3739 84.0885 91.3504ZM98.5838 2.01231L97.9055 1.46277L97.7747 2.32588L84.4208 90.4304L84.3163 91.1194L85.0025 90.9976L185.161 73.2218L186.239 73.0305L185.388 72.341L98.5838 2.01231Z" fill="black" stroke="black"/>
<path d="M97.9374 1.25718L97.9375 1.25656C97.9449 1.20833 97.9236 1.16354 97.8854 1.13913C97.8442 1.11279 97.792 1.11256 97.7505 1.13844C97.7502 1.13866 97.7498 1.13889 97.7495 1.13913L0.615306 64.3581C0.615114 64.3582 0.614923 64.3583 0.614732 64.3584C0.575409 64.3846 0.554474 64.4308 0.560652 64.4774C0.566465 64.5213 0.597513 64.5606 0.643768 64.5762C0.644085 64.5763 0.644402 64.5764 0.644719 64.5765L84.1337 91.3804C84.1339 91.3804 84.1341 91.3805 84.1344 91.3806C84.1428 91.3832 84.1539 91.3854 84.172 91.3854C84.1937 91.3854 84.2141 91.3797 84.2331 91.3677L84.2384 91.3644C84.2642 91.3487 84.2851 91.3189 84.2906 91.2847L97.9374 1.25718ZM97.9374 1.25718L84.2907 91.2839L97.9374 1.25718ZM1.83813 63.8497L0.956735 64.4234L1.95803 64.7449L83.5148 90.9299L84.074 91.1094L84.162 90.5288L97.4932 2.58715L97.6602 1.48518L96.7261 2.09315L1.83813 63.8497Z" fill="black" stroke="black"/>
</svg>
