<svg width="270" height="288" viewBox="0 0 270 288" fill="none" xmlns="http://www.w3.org/2000/svg">
<path d="M269.45 137.131C269.45 137.113 269.431 137.101 269.429 137.083C269.428 137.058 269.443 137.037 269.438 137.013L255.403 64.6154C255.38 64.494 255.32 64.3826 255.231 64.2954L228.212 37.2717C228.19 37.2494 228.157 37.2501 228.133 37.2319C228.116 37.2192 228.116 37.1928 228.098 37.1817L188.177 12.8354C188.162 12.8256 188.141 12.8375 188.124 12.8293C188.097 12.815 188.082 12.7856 188.052 12.7754L149.874 0.0299984C149.743 -0.00999946 149.611 -0.00999946 149.48 0.0299984L81.697 22.5947C81.6798 22.6004 81.672 22.6181 81.6559 22.6251C81.6448 22.6299 81.6305 22.6221 81.6198 22.6276L41.6965 42.4064C41.5879 42.4593 41.4993 42.5421 41.4393 42.6435L14.4407 87.6369L0.427338 105.559C0.341607 105.667 0.295898 105.802 0.295898 105.94L0.307328 150.143L14.3428 222.586C14.3664 222.708 14.4278 222.816 14.5121 222.901C14.5135 222.902 14.5128 222.904 14.5142 222.906L41.6479 250.021L81.5713 274.321C81.6005 274.339 81.6348 274.335 81.6656 274.348C81.6798 274.354 81.682 274.375 81.697 274.38L119.926 287.12C119.992 287.141 120.057 287.151 120.123 287.151C120.189 287.151 120.254 287.141 120.32 287.12L188.129 264.528L228.049 244.742C228.117 244.709 228.16 244.647 228.21 244.594C228.225 244.578 228.25 244.585 228.264 244.568L242.296 226.617C242.299 226.613 242.298 226.608 242.301 226.603L242.339 226.555L269.361 181.582C269.383 181.546 269.367 181.504 269.381 181.466C269.405 181.398 269.45 181.337 269.45 181.264V137.131ZM119.903 285.804L82.9235 273.482L98.0483 254.157L99.9985 251.665L126.141 277.807L119.903 285.804ZM227.218 38.0975L241.096 109.688L208.809 120.435L127.524 70.8902L120.835 36.3388L187.777 14.0426L227.218 38.0975ZM254.263 198.844L239.244 223.889L237.328 227.061L208.902 236.583L182.374 210.013V166.311L209.148 121.63L241.639 110.814L268.21 137.389V181.049L254.263 198.844ZM100.99 250.905L181.629 211.023L207.683 237.12L127.089 277.003L100.99 250.905ZM60.6438 226.083V136.424L99.9096 117.009L181.134 166.489V209.885L99.9728 250.025L60.6438 226.083ZM127.178 72.1318L207.885 121.323L181.542 165.285L100.79 116.093L127.178 72.1318ZM22.412 124.203L59.4037 136.487V225.572L22.412 213.245V124.203ZM240.656 225.963L239.139 226.463L239.899 225.206L240.656 225.963ZM237.626 228.979L239.654 227.984L233.49 235.868L237.626 228.979ZM241.685 225.237L240.556 224.112L255.283 199.545L263.155 189.506L241.685 225.237ZM242.38 109.802L228.769 39.5819L254.223 65.0383L267.835 135.26L242.38 109.802ZM120.121 35.2694L83.8543 23.1834L149.677 1.27154L185.892 13.3633L120.121 35.2694ZM81.9388 23.8525L119.583 36.3975L126.312 71.1617L110.987 96.6962L99.5038 115.826L59.978 135.371L22.332 122.87L15.6057 88.1059L42.408 43.4365L81.9388 23.8525ZM1.536 106.153L14.5999 89.4446L21.1719 123.405V213.479L15.3 221.011L1.536 150.024V106.153ZM15.7772 222.416L22.0109 214.419L59.7616 226.999L99.0234 250.9L81.7456 272.976L42.408 249.052L15.7772 222.416ZM121.875 285.295L127.369 278.249L135.706 274.123L208.973 237.866L236.349 228.696L227.336 243.712L187.657 263.383L121.875 285.295Z" fill="black"/>
</svg>
